<svg width="80" height="40" viewBox="0 0 80 40" fill="none" xmlns="http://www.w3.org/2000/svg">
<path fill-rule="evenodd" clip-rule="evenodd" d="M38.3747 0.0540033C34.6343 0.501209 31.6178 1.14929 28.3608 2.20535C17.772 5.63828 8.1574 12.3119 3.33094 19.5788C-0.952321 26.0274 -1.11053 31.8628 2.89009 35.8417C4.81167 37.7528 7.2766 38.9359 10.8451 39.6598C12.3207 39.959 12.9591 40.0004 16.0807 40C19.8797 39.9993 21.3467 39.8449 24.7465 39.0878C32.8665 37.2795 40.9969 33.3277 47.3367 28.1079C49.325 26.4709 52.3039 23.3914 53.6073 21.6257C54.1914 20.8344 54.6693 20.1491 54.6693 20.1028C54.6693 20.0566 53.5042 20.0187 52.0804 20.0187H49.4915L49.2333 20.4273C48.025 22.3389 46.0369 24.5701 43.9315 26.3772C37.0514 32.2822 27.3668 36.0673 19.1469 36.0637C7.03204 36.0585 2.49265 28.1574 9.16041 18.6815C11.1504 15.8534 15.0136 12.3648 18.6476 10.1137L20.0467 9.24712L19.1601 9.17284C18.1556 9.08859 17.7842 8.85786 17.7842 8.31795C17.7842 7.11881 19.7469 5.75565 21.4732 5.75565C22.3787 5.75565 22.8208 6.06855 22.8208 6.70979C22.8208 6.98004 22.6874 7.37124 22.5245 7.57909C22.0805 8.14515 22.1553 8.17487 22.9753 7.75812C24.296 7.08687 27.288 5.94404 29.1164 5.41259C32.6338 4.38997 35.3934 3.97277 38.6387 3.97277C41.8739 3.97277 44.2957 4.43008 46.4479 5.44751C47.7758 6.07508 49.2389 7.12758 49.7483 7.82141L50.0861 8.2814H53.7109C56.6995 8.2814 57.3357 8.24529 57.3357 8.07577C57.3357 7.96256 57.0568 7.31077 56.7159 6.62718C55.9175 5.02571 54.2419 3.30954 52.5372 2.34664C51.1658 1.57212 48.5985 0.665086 46.8183 0.326042C45.6022 0.0944166 39.6418 -0.0975413 38.3747 0.0540033ZM20.557 6.07003C19.7412 6.25738 19.2222 6.56255 18.695 7.16472C18.0473 7.90446 18.0746 8.48405 18.7744 8.8534C19.2029 9.07968 19.5058 9.06913 20.4234 8.79576C21.4985 8.47558 22.3764 7.62262 22.3764 6.89818C22.3764 6.33613 22.2038 6.16512 21.4876 6.01774C21.2839 5.97569 20.8651 5.99931 20.557 6.07003ZM66.1243 7.75515C65.5462 8.00728 65.3349 8.38079 65.3349 9.14995C65.3349 9.72627 65.3197 9.74365 64.7266 9.84409C64.0504 9.95864 63.5573 10.3602 63.5573 10.7963C63.5573 11.2087 64.2519 11.6986 64.8364 11.6986H65.3349V13.6712C65.3349 15.8989 65.4286 16.1653 66.3171 16.4593C66.9725 16.6762 67.9155 16.4455 68.147 16.0117C68.2298 15.8566 68.2975 14.8307 68.2975 13.732V11.7342L69.2084 11.6683C69.9304 11.6158 70.176 11.5317 70.3934 11.2625C70.9799 10.536 70.5146 9.98033 69.1946 9.83057L68.2975 9.7288V9.06958C68.2975 8.22464 68.1206 7.90655 67.5379 7.7027C66.9394 7.49351 66.7038 7.50228 66.1243 7.75515ZM22.9707 8.68566C21.8183 9.86637 20.7562 10.4157 19.7765 10.3375C19.414 10.3087 19.1174 10.3076 19.1174 10.3353C19.1174 10.3631 19.3451 10.6644 19.6235 11.005C21.0146 12.7077 21.4265 14.7693 20.6957 16.3705C20.4846 16.833 20.1764 17.384 20.0108 17.595C19.8454 17.8061 19.71 18.0366 19.71 18.1073C19.71 18.178 20.1932 18.2343 20.7839 18.2325C21.9198 18.2291 22.8905 17.906 23.506 17.3267L23.8208 17.0301L23.4663 15.9105C22.7942 13.7878 22.8781 11.1328 23.6952 8.65639C23.8564 8.16803 23.9743 7.75441 23.9572 7.73747C23.9402 7.72038 23.4962 8.14708 22.9707 8.68566ZM29.7089 9.71528C29.546 9.76 29.202 9.8949 28.9444 10.0152C28.5283 10.2099 28.4261 10.2082 28.026 10.0007C27.2791 9.61321 26.4254 9.69462 25.9201 10.2014L25.4872 10.6357V13.1399C25.4872 15.9487 25.548 16.1543 26.4694 16.4593C27.1248 16.6762 28.0678 16.4455 28.2993 16.0117C28.3821 15.8566 28.4498 14.9618 28.4498 14.0235C28.4498 13.0849 28.4913 12.2089 28.5418 12.0767C28.7776 11.4603 30.1604 11.2055 30.9755 11.6282C31.2157 11.7528 31.4224 11.8697 31.4345 11.8882C31.4467 11.9064 31.4967 12.8575 31.5456 14.0015L31.6347 16.0815L32.1965 16.3568C32.8464 16.6752 33.5657 16.6025 34.1054 16.1639C34.4384 15.8934 34.4492 15.8115 34.4492 13.5794C34.4492 11.4901 34.4207 11.235 34.1452 10.855C33.6331 10.1487 32.6166 9.74098 31.2257 9.68408C30.5545 9.65659 29.8719 9.6707 29.7089 9.71528ZM38.4039 9.84008C36.9545 10.2498 36.1646 10.8358 35.6415 11.8885C35.1959 12.7852 35.1681 13.4831 35.5454 14.2986C36.3303 15.9956 38.6295 16.9446 41.1036 16.5926C43.08 16.3115 44.0292 15.5209 43.2857 14.7754C42.9459 14.4344 42.7643 14.4228 40.5632 14.6018L39.2706 14.7069L38.7486 14.1833C38.1735 13.6066 38.0901 13.1369 38.4418 12.455C38.8391 11.6845 39.7147 11.5139 41.9481 11.7715C42.8351 11.8739 42.9596 11.8544 43.2443 11.5689C43.6481 11.1639 43.6445 10.7496 43.234 10.3662C42.7809 9.94274 42.0733 9.76534 40.5226 9.68601C39.6032 9.63906 38.9456 9.6869 38.4039 9.84008ZM47.3027 9.77515C44.6495 10.3004 43.1108 12.4006 43.9889 14.2986C44.7995 16.0507 47.0656 16.9291 49.9307 16.6013C51.3819 16.4352 52.4233 16.1158 52.8682 15.7001C53.5943 15.0217 52.9887 14.1272 51.8937 14.2609C51.5871 14.2983 50.9045 14.4469 50.3767 14.591C49.2912 14.8876 48.1598 14.8357 47.4275 14.4558C47.1739 14.3243 46.9664 14.1181 46.9664 13.9976C46.9664 13.812 47.4096 13.7786 49.8648 13.7786C51.5794 13.7786 52.88 13.7158 53.0496 13.6248C53.506 13.3798 53.4351 12.359 52.9033 11.5178C51.9834 10.0631 49.5977 9.32081 47.3027 9.77515ZM58.0848 9.79224C57.8042 9.87306 57.4413 10.0328 57.2784 10.1472C57.0211 10.328 56.9471 10.3237 56.716 10.1139C56.5697 9.98107 56.1326 9.84216 55.7447 9.80516C55.1793 9.75123 54.9589 9.80175 54.6323 10.0604L54.2249 10.383V14.5289V18.6747L54.6257 18.9381C54.8462 19.083 55.2992 19.2015 55.6322 19.2015C55.9652 19.2015 56.4182 19.083 56.6386 18.9381C57.0196 18.6876 57.0394 18.6153 57.0394 17.4721C57.0394 16.2956 57.0465 16.2718 57.3727 16.3663C60.0305 17.1368 62.5417 16.3608 63.4759 14.4802C64.1255 13.1729 63.9171 12.0454 62.8231 10.9481C62.2675 10.3907 61.8973 10.1695 61.1163 9.92744C60.06 9.60028 58.9269 9.54977 58.0848 9.79224ZM73.0975 9.91347C70.0551 10.9111 69.4223 14.2505 71.9688 15.8702C72.88 16.4498 73.6196 16.6421 74.9233 16.6385C75.6893 16.6364 76.164 16.5514 76.5898 16.34C77.184 16.0452 77.187 16.0452 77.7795 16.3393C78.4732 16.6835 79.2549 16.606 79.712 16.1475C79.9763 15.8824 80 15.6344 80 13.1331C80 9.99935 79.9716 9.9264 78.7038 9.80427C78.1488 9.75078 77.9184 9.80011 77.6305 10.034L77.2638 10.3317L76.6691 10.0259C75.8084 9.58334 74.2536 9.53446 73.0975 9.91347ZM50.0043 11.8482C50.2072 12.0396 50.3735 12.2513 50.3735 12.3187C50.3735 12.3862 49.6069 12.4414 48.6699 12.4414C47.733 12.4414 46.9674 12.3912 46.9686 12.33C46.9867 11.4478 49.2056 11.0957 50.0043 11.8482ZM60.2983 11.9737C61.0965 12.5628 61.0193 13.9086 60.1581 14.4188C59.6923 14.6949 58.6028 14.7504 58.0196 14.5282C57.201 14.216 56.8614 12.9057 57.4324 12.263C58.0907 11.5221 59.4946 11.3803 60.2983 11.9737ZM76.0598 11.7571C76.6878 12.0202 77.0373 12.5194 77.0373 13.1528C77.0373 14.1393 76.3897 14.67 75.1857 14.67C73.9756 14.67 73.334 14.1399 73.334 13.1399C73.334 11.944 74.7688 11.2162 76.0598 11.7571Z" fill="#E8E8E8"/>
</svg>
