<svg width="44" height="44" viewBox="0 0 44 44" fill="none" xmlns="http://www.w3.org/2000/svg">
<path d="M43.985 22.0013C43.9863 24.8897 43.4185 27.7501 42.3141 30.4191C41.2096 33.088 39.5902 35.5132 37.5482 37.5561C35.5062 39.599 33.0817 41.2196 30.4133 42.3253C27.7448 43.4309 24.8847 44 21.9963 44C19.1074 44.0003 16.2467 43.4315 13.5777 42.3261C10.9087 41.2206 8.48357 39.6002 6.44094 37.5573C4.3983 35.5144 2.77813 33.0892 1.67298 30.42C0.567827 27.7509 -0.000656688 24.8901 5.69269e-07 22.0013C-0.000656621 19.1122 0.567808 16.2514 1.67293 13.5821C2.77805 10.9128 4.39818 8.48739 6.44078 6.44432C8.48339 4.40125 10.9085 2.78057 13.5775 1.67484C16.2465 0.569115 19.1072 -7.47487e-08 21.9963 0C24.8847 0.000656974 27.7448 0.570275 30.4131 1.67633C33.0814 2.78238 35.5057 4.4032 37.5476 6.44624C39.5895 8.48928 41.2089 10.9145 42.3135 13.5835C43.418 16.2524 43.986 19.1128 43.985 22.0013Z" fill="#E8E8E8"/>
<path d="M8.8161 20.7028L9.49161 18.201H13.8048L14.4753 20.7028H18.3381L14.4753 8.81653H10.1746L10.6199 9.56708L6.7771 20.7028H8.8161ZM11.6882 11.6962H12.0685L13.5696 16.835H9.86688L11.6882 11.6962Z" fill="#1E1E1E"/>
<path d="M22.5093 20.703C25.0111 21.5411 27.8757 19.4796 27.8757 19.4796V17.368C27.8757 17.368 25.3038 20.1626 23.2673 18.4238C21.2308 16.685 21.9764 12.3668 23.2673 11.0108C24.5583 9.65483 27.0451 10.1727 27.9558 12.0641V9.64982C27.9558 9.03186 21.2959 5.62685 18.8015 12.5219C18.4337 13.5277 17.7332 19.1093 22.5093 20.703Z" fill="#1E1E1E"/>
<path d="M33.0979 8.5863H29.7004V20.7028L33.0979 20.6252V8.5863Z" fill="#1E1E1E"/>
<path d="M1.71875 27.0632C2.8504 31.5847 5.46047 35.5985 9.13434 38.4668C12.8082 41.3352 17.3352 42.8938 21.9962 42.8948C26.6602 42.8951 31.19 41.3335 34.8629 38.4591C38.5359 35.5846 41.1405 31.563 42.2612 27.0356V27.0632C37.4451 27.4434 33.1645 27.4209 30.9078 24.5613C28.6511 21.7017 19.2567 26.1575 19.0265 26.3802C18.7964 26.6028 14.4782 28.6493 11.0857 27.4434C7.24784 26.0399 2.4593 26.9005 1.72125 27.0356L1.71875 27.0632Z" fill="#1E1E1E"/>
<path d="M37.8011 33.9955C36.9045 35.1774 35.8773 36.2541 34.7389 37.2053L34.7213 37.1878C27.9038 32.2717 24.849 34.3207 22.8 36.0645C20.751 37.8083 16.4478 38.0284 14.5564 37.4355C12.5825 36.8075 8.67961 36.6849 8.67961 36.6849L8.66209 36.7025C8.09461 36.1888 7.55668 35.6433 7.0509 35.0688H7.10594C9.56359 34.994 12.0235 35.0725 14.4714 35.3039C18.4168 35.6817 17.5787 35.8293 21.359 33.3375C25.1393 30.8456 25.3619 33.2199 30.218 32.8046C35.6896 32.3342 37.7661 33.9704 37.7661 33.9704L37.8011 33.9955Z" fill="#E8E8E8"/>
<path d="M3.1997 28.3508C3.1997 28.3508 6.3095 27.6628 11.3057 29.254C16.3019 30.8451 19.6218 28.8662 24.9233 26.3793C28.2557 24.628 31.5106 25.3961 29.7693 27.893C29.1639 29.3941 31.8159 29.254 32.2712 29.1789C32.7265 29.1039 38.8511 28.1532 40.3922 29.4291C40.094 30.1997 39.7394 30.9472 39.3314 31.6657L39.3064 31.6532C39.3064 31.6532 33.9399 29.7894 30.2247 31.0778C27.34 31.966 28.0055 29.4516 28.0281 29.259C28.0281 29.1239 27.315 28.3233 25.0834 29.259C23.1044 30.0846 19.174 32.3613 19.174 32.3613C19.174 32.3613 16.1468 35.391 10.7002 32.0585C8.89141 30.9452 6.73982 29.8494 4.0103 30.3848H3.99529C3.68943 29.7239 3.42048 29.0465 3.1897 28.3558L3.1997 28.3508Z" fill="#E8E8E8"/>
<path d="M32.1844 39.0287C29.1086 40.8747 25.5866 41.8445 21.9993 41.8333C20.5446 41.8388 19.0936 41.6878 17.6711 41.3829C17.6711 41.3829 21.9018 38.3182 23.1127 37.42C24.3236 36.5218 28.9945 34.713 32.1769 39.0112L32.1844 39.0287Z" fill="#E8E8E8"/>
</svg>
