<svg width="112" height="48" viewBox="0 0 112 48" fill="none" xmlns="http://www.w3.org/2000/svg">
<path d="M55.7079 25.3864C78.7947 25.3864 97.5016 19.9357 97.5016 12.6956C97.5016 5.4555 78.7947 0 55.7079 0C32.6212 0 13.9247 5.44715 13.9247 12.6956C13.9247 19.9441 32.6303 25.3864 55.7079 25.3864ZM55.9043 24.6546C34.2109 24.6546 16.6326 19.3014 16.6326 12.6956C16.6326 6.08983 34.2109 0.723452 55.9043 0.723452H55.5185C77.2168 0.723452 94.7958 6.08496 94.7958 12.6956C94.7958 19.3063 77.2168 24.6546 55.5185 24.6546H55.9043Z" fill="#E8E8E8"/>
<path d="M25.2311 9.76219C23.5544 11.5726 22.6777 13.2541 22.6777 14.6168C22.6777 15.2637 22.8706 15.7086 23.0328 15.9641C23.4172 16.5525 24.069 16.916 24.8251 16.9682L25.3655 16.9849C26.2614 16.9693 27.1476 16.7954 27.9829 16.471C28.9612 16.1009 29.9031 15.641 30.7967 15.0972C31.8056 14.4706 32.7331 13.7408 33.6822 12.8823C34.5978 12.0668 35.4184 11.1505 36.1283 10.1507C36.8093 9.19749 37.2549 8.27907 37.4715 7.41427C37.5052 7.1678 37.5227 6.91938 37.5237 6.67062C37.5064 6.33011 37.3791 6.0044 37.1609 5.74245C36.8406 5.38664 36.4416 5.19168 35.7035 5.19168C35.3036 5.20051 34.9074 5.27097 34.5289 5.40057C34.0501 5.56302 33.5921 5.78106 33.1641 6.05021C32.6736 6.3508 32.219 6.70636 31.8091 7.10998C31.4623 7.44913 31.1507 7.82237 30.8788 8.22406C30.6932 8.48494 30.5505 8.77384 30.4562 9.07981C30.3169 9.67237 30.3657 10.0915 30.5954 10.2921C30.8358 10.4886 31.1373 10.5947 31.4477 10.5922C31.7262 10.5922 32.0493 10.4898 32.403 10.2781C32.7568 10.0665 32.9483 9.87081 32.99 9.67376L32.816 9.64173C32.5848 9.60691 32.4107 9.54077 32.307 9.43841C32.2398 9.37567 32.187 9.29911 32.1522 9.214C32.1175 9.1289 32.1016 9.03726 32.1057 8.94543L32.1273 8.69615C32.206 8.39257 32.4358 7.98593 32.8034 7.48181C33.1863 6.9711 33.6427 6.51988 34.1577 6.14282C34.735 5.73131 35.2913 5.52521 35.8484 5.52521C36.1965 5.52521 36.663 5.63243 36.8657 6.11984C37.0168 6.47496 37.0168 6.89065 36.9026 7.38154C36.5906 8.63975 35.8059 9.9857 34.5351 11.3846C33.2644 12.7834 31.9309 13.9281 30.523 14.8055C30.0195 15.1269 29.4805 15.3889 28.9166 15.586C28.4128 15.7538 27.8852 15.8392 27.3541 15.8388C26.9146 15.8389 26.4826 15.7245 26.1008 15.5067L26.0193 15.4621C25.6252 15.1683 25.4323 14.6363 25.4323 13.9525C25.4323 13.1587 25.7206 11.489 27.6403 9.18635C29.817 6.58498 32.1071 5.53286 32.8299 5.24877L32.7644 5.1687C32.0048 5.32537 28.157 6.58497 25.2325 9.76428" fill="#E8E8E8"/>
<path d="M78.4075 7.91344L78.3804 7.91902L77.909 7.92877L77.4766 7.85914L77.4898 7.85287L77.3074 7.81805L77.2941 7.81179C77.134 8.19299 76.9248 8.55161 76.6716 8.87852C76.9932 8.98078 77.3333 9.01167 77.668 8.96904C78.0565 8.92599 78.4194 8.75445 78.6993 8.48163C78.9082 8.28666 79.0091 8.02068 79.0426 7.7157C78.8416 7.81246 78.6277 7.87954 78.4075 7.91484" fill="#E8E8E8"/>
<path d="M45.014 10.433C44.6937 10.0625 44.1959 9.86828 43.5351 9.86828C43.0407 9.86828 42.4739 9.88568 41.9489 10.0827C41.4239 10.2798 40.7568 10.5353 40.0689 11.0652L39.6984 11.3347L39.5355 11.4739L39.5487 11.4684L40.5605 9.8634H38.7501C38.4193 10.2812 37.7321 11.1167 37.1806 11.7051C36.6674 12.258 35.8674 13.0399 35.224 13.5378C32.9303 15.3154 29.8199 16.0486 28.2184 16.4003C27.8208 16.4845 27.7101 16.4998 27.5562 16.5305L26.8237 17.0875C27.0681 17.0402 27.3731 16.9914 27.7791 16.9274C29.414 16.6356 32.3051 16.0702 34.7372 14.3935C35.4266 13.9187 36.0874 13.4292 36.5852 12.8617C36.7781 12.6528 37.0427 12.3743 37.4333 11.93L37.5155 11.8311L32.1741 20.2564H33.9783L36.6939 15.9804C36.6939 15.9804 36.7391 16.025 36.8867 16.1489C37.0455 16.2728 37.3909 16.4762 37.3909 16.4762L37.7251 16.6217L37.9695 16.7206C38.1108 16.7644 38.2554 16.7966 38.4019 16.8166C38.5927 16.833 38.7842 16.8389 38.9757 16.8341C39.5487 16.8341 40.0689 16.7136 40.7464 16.4546C41.4572 16.1721 42.1279 15.7975 42.7413 15.3405C43.3617 14.8957 43.9182 14.3679 44.395 13.7717C44.8102 13.265 45.1109 12.6745 45.2765 12.0407C45.4527 11.3751 45.3524 10.8396 45.0168 10.4323M42.8067 12.5908C42.6925 13.0483 42.4328 13.5963 42.0206 14.2055C41.6185 14.814 41.1221 15.3546 40.55 15.807C39.9484 16.2756 39.3712 16.4574 38.7396 16.4574C38.3824 16.4574 38.17 16.3731 37.856 16.2415C37.5343 16.0939 37.2864 15.8516 37.0427 15.4171L38.9172 12.4543L38.9562 12.4133C39.1651 12.1501 39.821 11.5972 40.1211 11.4022C40.6733 11.0652 41.1579 10.8939 41.5799 10.8939C41.9726 10.8939 42.2824 10.9907 42.492 11.1724C42.6798 11.3389 42.8031 11.5662 42.8402 11.8144C42.8824 12.074 42.8703 12.3396 42.8047 12.5943" fill="#E8E8E8"/>
<path d="M48.3538 11.9687C48.0335 12.2953 47.7152 12.624 47.2961 12.9972C46.441 13.7276 45.4334 14.3201 44.4823 14.7713L44.5679 14.3536C45.6458 13.8265 46.7265 13.149 47.6261 12.2723C48.1832 11.7243 48.5536 11.3741 48.9964 10.799C49.1858 10.5532 49.4776 10.2064 49.7422 9.86243H51.5526L51.5303 9.89585L51.2845 10.2893L51.1083 10.7328L51.0714 10.9779L51.1466 11.3442L51.5004 11.9834L51.8409 12.656L51.8861 12.9498L51.861 13.5347C51.7489 14.0082 51.5073 14.5283 50.9106 15.0882C50.0667 15.8764 49.6377 16.0846 48.6587 16.4877C47.8002 16.854 46.9918 16.8769 46.1722 16.8588C45.6848 16.854 45.1577 16.7405 44.827 16.5636C44.4962 16.3868 44.4468 16.251 44.4468 16.1514V16.086C44.4537 16.0811 44.4823 16.0017 44.7949 15.7434L45.6131 15.1564L46.019 14.9294L46.1632 14.951L46.3136 15.4523C46.3762 15.7308 46.4584 15.9279 46.6025 16.0511C46.7467 16.2203 47.0203 16.3046 47.4068 16.3046C47.7548 16.2949 48.0975 16.2174 48.4157 16.0762C48.7226 15.9498 49.0104 15.7813 49.2708 15.5756L49.2979 15.5609C49.8146 15.1063 50.2923 14.7908 49.7102 13.1378C49.2408 11.8531 49.2979 11.7452 49.0347 11.6798C48.7715 11.6143 48.5933 11.755 48.3739 11.9618L48.3538 11.9687Z" fill="#E8E8E8"/>
<path d="M64.6355 13.4645L62.5396 16.7747H60.7362C60.9451 16.4426 64.8388 10.3145 64.914 10.2031L65.1229 9.86257H66.9466L65.0443 12.8441C65.0443 12.8441 66.0727 12.1604 66.6102 11.8268C67.1478 11.4933 67.7243 11.1612 67.7243 11.1612C68.2831 10.8169 68.8647 10.5112 69.4651 10.2462C70.0179 10.0015 70.6133 9.86739 71.2177 9.85143C71.4202 9.84446 71.6213 9.88826 71.8026 9.97885C71.8422 9.99628 71.8766 10.0236 71.9024 10.0583C71.9283 10.0929 71.9448 10.1337 71.9502 10.1766C71.9774 10.311 71.898 10.3785 71.7288 10.6529L71.4503 11.0874L69.3878 14.3286C69.1789 14.6218 69.0174 14.933 68.9958 15.0437C68.9667 15.1441 68.9652 15.2505 68.9914 15.3517C69.0176 15.4529 69.0706 15.5452 69.1448 15.6189C69.2736 15.7345 69.4533 15.7909 69.7318 15.7909C70.0584 15.7909 70.4977 15.591 71.1536 15.2338C71.1536 15.2338 71.9481 14.7562 72.3945 14.4769C72.361 14.6475 72.3325 14.7701 72.3151 14.8251L72.0066 15.05C71.2873 15.5472 70.7999 15.9134 70.057 16.2936C69.0424 16.8207 68.4311 16.8158 68.2765 16.8158C67.8956 16.8158 67.3713 16.7225 67.1262 16.5296C66.8477 16.3207 66.7655 15.9726 66.8644 15.5548C66.9299 15.325 67.1262 15.0312 67.356 14.6928L67.7849 14.0125L68.5683 12.8184C69.1504 11.9556 69.2722 11.7161 69.321 11.5817C69.3402 11.5169 69.3405 11.4479 69.3219 11.3829C69.3033 11.3179 69.2665 11.2596 69.2158 11.2148C69.1504 11.1584 69.0327 11.1138 68.8134 11.0894C68.6785 11.0835 68.5441 11.1088 68.4206 11.1633C68.0265 11.361 67.7 11.5413 67.3762 11.744C67.3762 11.744 66.7996 12.0761 66.2621 12.4096C65.7245 12.7432 64.6355 13.4645 64.6355 13.4645Z" fill="#E8E8E8"/>
<path d="M80.9708 13.4642L78.8819 16.7744H77.0715C77.2846 16.4423 81.1797 10.3141 81.2494 10.2027L81.4694 9.86225H83.2735L81.3803 12.8438C81.3803 12.8438 82.3962 12.16 82.9428 11.8265C83.4894 11.493 84.0527 11.1608 84.0527 11.1608C84.613 10.8107 85.1997 10.5046 85.8074 10.2452C86.3531 10.0003 86.9419 9.86612 87.5398 9.85041C87.7439 9.84365 87.9465 9.88743 88.1296 9.97783C88.1685 9.9964 88.2025 10.024 88.2285 10.0585C88.2546 10.0929 88.272 10.133 88.2793 10.1756C88.303 10.31 88.2208 10.3775 88.0627 10.6519L87.7759 11.0863L85.7155 14.3276C85.5066 14.6208 85.3367 14.932 85.3262 15.0427C85.2968 15.1427 85.2947 15.2488 85.32 15.3499C85.3454 15.451 85.3973 15.5435 85.4704 15.6179C85.6096 15.7334 85.7879 15.7898 86.0525 15.7898C86.3811 15.7898 86.8289 15.59 87.4778 15.2328C87.4778 15.2328 88.2793 14.7551 88.7249 14.4759C88.6831 14.6465 88.6629 14.7691 88.6462 14.8241L88.3364 15.049C87.6122 15.5461 87.1276 15.9124 86.393 16.2926C85.3715 16.8197 84.7594 16.8148 84.6056 16.8148C84.2282 16.8148 83.7052 16.7215 83.465 16.5286C83.1802 16.3197 83.105 15.9716 83.2004 15.5538C83.2589 15.324 83.4553 15.0302 83.6878 14.6918L84.1237 14.0115L84.8897 12.8173C85.4947 11.9546 85.6103 11.7151 85.6486 11.5807C85.6699 11.5169 85.6722 11.4482 85.6553 11.3831C85.6383 11.318 85.6029 11.2592 85.5532 11.2138C85.4947 11.1574 85.3604 11.1128 85.1438 11.0884C85.0505 11.0745 84.9245 11.1017 84.7553 11.1622C84.3598 11.36 84.0276 11.5403 83.7004 11.743C83.7004 11.743 83.1371 12.0751 82.5974 12.4086C82.0578 12.7421 80.9757 13.4642 80.9757 13.4642" fill="#E8E8E8"/>
<path d="M77.764 9.86243H75.9494L75.7301 10.2029L73.3174 14.0166L72.878 14.6941C72.665 15.0157 72.4603 15.3207 72.4004 15.5526L72.3635 15.8562C72.3593 15.9848 72.3854 16.1125 72.4396 16.2292C72.4937 16.3459 72.5745 16.4483 72.6754 16.5281C72.9198 16.7147 73.4246 16.8143 73.802 16.8143C73.958 16.8143 74.6035 16.8094 75.6298 16.2809C76.3888 15.891 76.8734 15.5025 77.5711 15.0373L77.8559 14.8236C77.8699 14.7713 77.9012 14.6502 77.9353 14.4754C77.489 14.7539 76.6889 15.233 76.6889 15.233C76.049 15.5881 75.5895 15.79 75.2552 15.79C75.0122 15.79 74.8228 15.7308 74.6982 15.625C74.6395 15.576 74.5927 15.5145 74.5611 15.4449C74.5295 15.3754 74.514 15.2996 74.5157 15.2232L74.5227 15.0721C74.5659 14.8577 74.9029 14.3543 75.0442 14.1509L77.732 9.9244L77.764 9.86243Z" fill="#E8E8E8"/>
<path d="M61.3183 13.4243C61.011 13.4215 60.707 13.3601 60.4228 13.2432C60.885 12.5417 61.2541 11.7831 61.5209 10.9865V10.9573C61.6057 10.7125 61.6453 10.4544 61.6379 10.1955C61.6281 10.1461 61.5042 10.0667 61.3009 9.99081C60.8087 9.83754 60.2956 9.76235 59.7801 9.768C59.2231 9.768 58.6974 9.85016 57.8903 10.0667C57.0506 10.2902 56.2053 10.7143 55.6455 11.0262C54.9641 11.4061 54.352 11.8986 53.8351 12.4829C53.3369 13.0453 52.979 13.7177 52.7906 14.445C52.6625 14.993 52.6799 15.4491 52.8693 15.8042C53.042 16.1459 53.3284 16.4167 53.6791 16.5701C54.0472 16.7363 54.4471 16.8204 54.851 16.8166C55.5654 16.8166 56.3278 16.7094 57.0186 16.3989C57.7232 16.0765 58.171 15.7548 58.7809 15.2151L58.9369 15.0647C59.0128 14.9659 59.1869 14.8078 59.5106 14.4701L59.7989 14.1101L60.1039 13.6923L60.2585 13.4974L60.4145 13.5545C60.7319 13.6617 61.0654 13.7133 61.4004 13.707C62.5535 13.707 63.3264 13.1847 63.5813 12.8234L63.7024 12.4613C62.713 13.4528 61.7973 13.4208 61.3099 13.4208M59.8226 13.5781C59.0977 14.6435 58.0463 15.4582 57.6411 15.6824C57.2358 15.9066 56.9016 16.0152 56.5966 16.0152C56.0013 16.0152 55.5904 15.7979 55.3941 15.3843C55.2284 15.0244 55.1915 14.5892 55.3189 14.0913C55.491 13.3838 55.7826 12.7108 56.1809 12.1013C56.5595 11.4941 57.0715 10.9812 57.678 10.6015C58.282 10.2114 58.9859 10.0044 59.7049 10.0054C59.9633 10.0017 60.2209 10.0331 60.4709 10.0987L60.7187 10.1955L60.4472 10.2589L60.1861 10.348C59.1479 10.8097 58.9285 11.5004 58.9285 11.8799C58.9285 12.4641 59.2621 12.916 59.6778 13.1924L59.8539 13.2996L59.9765 13.3804L59.8226 13.5781ZM60.1561 13.1172L60.0865 13.081C60.0865 13.081 59.6304 12.838 59.4341 12.4118C59.2252 11.9878 59.3303 11.3416 59.8219 10.88C60.3135 10.4183 60.9214 10.3647 61.0655 10.4093C61.2096 10.4538 61.3343 10.5242 61.2368 10.8229C61.1449 11.1014 60.8357 12.1243 60.1554 13.1207" fill="#E8E8E8"/>
<path d="M4.86927 34.5462C4.02465 34.5462 3.34714 34.3247 2.8458 33.8805C2.34446 33.4363 2.08962 32.8082 2.08962 31.9859C2.08962 31.1635 2.34237 30.5327 2.8458 30.0899C3.34923 29.647 4.02465 29.4214 4.86927 29.4214C5.71389 29.4214 6.38652 29.6442 6.87811 30.0933C7.36971 30.5424 7.62734 31.167 7.62734 31.9859C7.62734 32.8047 7.37806 33.4363 6.87811 33.8805C6.37817 34.3247 5.71459 34.5462 4.86927 34.5462ZM9.71695 31.9859C9.71695 30.6532 9.20169 29.6526 8.1809 28.9883C7.4145 28.4187 6.30784 28.1349 4.86091 28.1367C3.40912 28.1367 2.30547 28.4152 1.53605 28.9883C0.515267 29.6526 0 30.6532 0 31.9859C0 33.288 0.515267 34.292 1.53605 34.9855C2.30547 35.5502 3.40912 35.8322 4.86091 35.8322C6.31271 35.8322 7.41427 35.5502 8.1809 34.9855C9.20169 34.2892 9.71695 33.288 9.71695 31.9859Z" fill="#E8E8E8"/>
<path d="M16.3446 32.9571C16.3446 33.4661 16.2005 33.8734 15.9136 34.184C15.6267 34.4945 15.2131 34.6429 14.6644 34.6429C14.3256 34.6511 13.9902 34.5732 13.6896 34.4166C13.2356 34.1624 13.0121 33.7154 13.0121 33.0804C13.0121 32.6793 13.0776 32.3506 13.2154 32.0867C13.4765 31.5993 13.9646 31.3514 14.6777 31.3514C15.2647 31.3514 15.6901 31.5151 15.9554 31.8389C16.2131 32.1541 16.3519 32.5499 16.3474 32.9571M15.2577 30.1232C14.6589 30.1232 14.1436 30.2464 13.7049 30.488C13.4545 30.6388 13.2285 30.8266 13.0344 31.0451V30.2638H11.1084V37.7651H13.0581V34.9833C13.2419 35.1883 13.4578 35.3621 13.6973 35.4979C14.0942 35.7068 14.592 35.8182 15.1874 35.8182C16.1281 35.8182 16.8877 35.5654 17.4852 35.0662C18.0826 34.567 18.382 33.8358 18.382 32.8847C18.382 31.9795 18.0819 31.2923 17.4712 30.8285C16.8606 30.3648 16.1267 30.1253 15.2549 30.1253" fill="#E8E8E8"/>
<path d="M21.2288 33.902C21.274 34.1561 21.368 34.3316 21.5073 34.4402C21.7524 34.6303 22.2084 34.7229 22.879 34.7229C23.2731 34.7229 23.5802 34.6798 23.8127 34.5976C24.0453 34.5154 24.1609 34.3957 24.1609 34.2279C24.1609 34.0719 24.0648 33.9493 23.8789 33.8693C23.693 33.7892 23.0022 33.6444 21.8102 33.4466C20.9481 33.2997 20.3479 33.1124 20.0074 32.8861C19.8431 32.7875 19.7083 32.6467 19.6168 32.4783C19.5253 32.3099 19.4806 32.1202 19.4873 31.9287C19.4873 31.4329 19.76 31.0093 20.3054 30.6579C20.8527 30.3021 21.6187 30.1232 22.6081 30.1232C23.5454 30.1232 24.3148 30.2576 24.9059 30.5228C25.4971 30.7881 25.8334 31.2567 25.9225 31.9154H23.9729C23.9493 31.7501 23.8722 31.5971 23.7536 31.4796C23.537 31.2867 23.1603 31.1927 22.6436 31.1927C22.2112 31.1927 21.8993 31.2421 21.7196 31.3375C21.54 31.4329 21.4481 31.5464 21.4481 31.6717C21.4481 31.8347 21.5456 31.9503 21.7398 32.0199C21.9341 32.0895 22.6165 32.2218 23.7953 32.407C24.5787 32.5372 25.1657 32.7301 25.5445 32.9996C25.9232 33.269 26.114 33.6026 26.114 34.0057C26.114 34.5328 25.8397 34.9687 25.2826 35.3036C24.7256 35.6386 23.881 35.8105 22.7272 35.8105C21.549 35.8105 20.6821 35.6288 20.1154 35.2695C19.5486 34.9102 19.2798 34.4562 19.2798 33.8964L21.2288 33.902Z" fill="#E8E8E8"/>
<path d="M30.9341 34.6421C30.3639 34.6421 29.9182 34.4965 29.6112 34.2027C29.3041 33.9088 29.1453 33.4904 29.1453 32.9445C29.1453 32.3986 29.2992 31.9857 29.6112 31.6911C29.9231 31.3966 30.3639 31.2553 30.9341 31.2553C31.5162 31.2553 31.9556 31.4022 32.2676 31.6911C32.5795 31.9801 32.7285 32.4021 32.7285 32.9445C32.7285 33.4869 32.5705 33.9088 32.2676 34.2027C31.9647 34.4965 31.5162 34.6421 30.9341 34.6421ZM34.7638 32.9493C34.7638 32.176 34.4475 31.5048 33.8148 30.9356C33.1825 30.3696 32.2251 30.0883 30.9355 30.0883C29.646 30.0883 28.692 30.3668 28.0598 30.9356C27.4275 31.5045 27.1107 32.1758 27.1107 32.9493C27.1107 33.739 27.4241 34.4116 28.0591 34.9742C28.6941 35.5368 29.6508 35.816 30.9348 35.816C32.2188 35.816 33.1818 35.534 33.8141 34.9742C34.4463 34.4144 34.7631 33.739 34.7631 32.9493" fill="#E8E8E8"/>
<path d="M42.1519 30.5613C42.6394 30.8517 42.8796 31.3356 42.8796 32.0124V35.6408H40.8457V32.3626C40.8457 32.0758 40.7955 31.8592 40.6911 31.7074C40.5087 31.4345 40.148 31.2896 39.6237 31.2896C38.9747 31.2896 38.5367 31.4985 38.2937 31.8989C38.1663 32.1127 38.1043 32.3863 38.1043 32.7212V35.638H36.1547V30.2605H38.0556V31.0466C38.2541 30.8093 38.4911 30.6072 38.7568 30.4485C39.1592 30.2327 39.662 30.1219 40.2754 30.1219C41.0413 30.1219 41.6638 30.2675 42.1554 30.5585" fill="#E8E8E8"/>
<path d="M46.7064 29.6179H44.7567V28.3312H46.7064V29.6179ZM44.7567 30.2606H46.7064V35.6381H44.7567V30.2606Z" fill="#E8E8E8"/>
<path d="M54.6533 30.5613C55.1407 30.8517 55.3844 31.3356 55.3844 32.0124V35.6408H53.347V32.3626C53.347 32.0758 53.2969 31.8592 53.1959 31.7074C53.01 31.4345 52.6563 31.2896 52.1285 31.2896C51.4823 31.2896 51.0381 31.4985 50.7986 31.8989C50.6642 32.1516 50.5989 32.4352 50.6092 32.7212V35.638H48.6539V30.2605H50.5541V31.0466C50.7549 30.8081 50.9951 30.6058 51.2644 30.4485C51.6606 30.2327 52.1654 30.1219 52.7768 30.1219C53.5427 30.1219 54.1694 30.2675 54.6568 30.5585" fill="#E8E8E8"/>
<path d="M66.8888 30.6597C66.8888 31.0426 66.7544 31.3212 66.4828 31.4994C66.2113 31.6777 65.8373 31.7605 65.3562 31.7605H63.4399V29.602H65.3562C65.8373 29.602 66.2147 29.6842 66.4828 29.8443C66.7509 30.0045 66.8888 30.2823 66.8888 30.6625M68.9777 30.6625C68.9777 29.8749 68.6831 29.2935 68.0878 28.9217C67.4925 28.5499 66.6952 28.3584 65.6967 28.3584H61.3503V35.648H63.4434V33.0139H65.5505C66.6437 33.0139 67.4918 32.8384 68.0885 32.4833C68.6852 32.1282 68.9721 31.5238 68.9721 30.6652" fill="#E8E8E8"/>
<path d="M75.8986 30.2966C76.2445 30.396 76.5613 30.5776 76.8219 30.8258C77.0071 30.9893 77.1392 31.2044 77.2014 31.4434C77.2445 31.6565 77.2668 32.0005 77.2668 32.4816V35.6387H75.2559V32.3695C75.2559 32.0792 75.1974 31.8445 75.0602 31.669C74.8841 31.4198 74.5484 31.2917 74.0506 31.2917C73.5409 31.2917 73.1537 31.4163 72.885 31.6642C72.6162 31.9121 72.4964 32.2686 72.4964 32.7295V35.6387H70.5377V28.3721H72.4964V30.9637C72.757 30.6626 73.0937 30.4371 73.4713 30.3106C73.8504 30.1851 74.2473 30.1221 74.6466 30.124C75.0708 30.1183 75.4933 30.1767 75.9 30.2973" fill="#E8E8E8"/>
<path d="M83.2729 33.542C83.2562 34.0224 83.0751 34.3497 82.7158 34.5307C82.3524 34.7129 81.9505 34.8053 81.544 34.8002C81.3097 34.8061 81.078 34.7496 80.8727 34.6366C80.6868 34.5307 80.5942 34.3539 80.5942 34.1116C80.5942 33.8331 80.7481 33.6346 81.0621 33.5037C81.2431 33.4257 81.5398 33.3644 81.9555 33.3101L82.3851 33.2489C82.5595 33.2264 82.7324 33.1941 82.9031 33.1521L83.2771 33.0128L83.2729 33.542ZM81.4193 32.4112C80.6596 32.4808 80.0866 32.5936 79.6973 32.7594C78.9899 33.0546 78.6327 33.5385 78.6327 34.2056C78.6327 34.7194 78.8555 35.1108 79.297 35.3962C79.7384 35.6817 80.2927 35.8182 80.9737 35.8182C81.4624 35.8254 81.9477 35.7359 82.4018 35.555C82.7343 35.4202 83.0465 35.2397 83.3293 35.0188C83.3474 35.1428 83.3648 35.2465 83.3843 35.3405C83.4134 35.446 83.4552 35.5474 83.5089 35.6427H85.6348V35.4283L85.343 35.266C85.281 35.202 85.2406 35.0801 85.2253 34.8984C85.2188 34.6542 85.2156 34.4453 85.2156 34.2717V31.7845C85.2156 31.1307 84.8939 30.6913 84.2616 30.4616C83.6294 30.2318 82.9031 30.1232 82.0815 30.1232C80.8281 30.1232 79.9459 30.3606 79.4258 30.8264C79.1029 31.1244 78.9068 31.5349 78.8778 31.9732H80.7773C80.8144 31.7847 80.9093 31.6124 81.0489 31.4803C81.2431 31.3201 81.5634 31.2345 82.0279 31.2345C82.4338 31.2345 82.7423 31.2776 82.9588 31.3584C83.0542 31.3904 83.1363 31.4529 83.1927 31.5362C83.249 31.6195 83.2765 31.719 83.2708 31.8194C83.2708 32.0011 83.135 32.1369 82.853 32.2225C82.6009 32.2908 82.3423 32.3321 82.0815 32.3458L81.4193 32.4112Z" fill="#E8E8E8"/>
<path d="M91.1228 30.1266L91.2906 30.1434V31.5638L90.9585 31.5499H90.7238C89.9307 31.5499 89.4008 31.733 89.1307 32.1C88.9782 32.3089 88.903 32.6298 88.903 33.0629V35.6393H86.9478V30.2617H88.7937V31.1885C89.0924 30.832 89.3639 30.5869 89.5868 30.4546C89.9579 30.2367 90.4356 30.1232 91.0239 30.1232L91.1228 30.128" fill="#E8E8E8"/>
<path d="M101.778 30.2639C102.107 30.3516 102.411 30.5146 102.666 30.7401C102.877 30.9226 103.028 31.1656 103.098 31.4364C103.151 31.6994 103.174 31.9676 103.168 32.2358L103.158 35.6421H101.134V32.1801C101.14 32.0006 101.092 31.8234 100.994 31.6725C100.818 31.4246 100.493 31.2944 100.02 31.2944C99.4702 31.2944 99.0907 31.4615 98.8811 31.7818C98.7701 31.969 98.7144 32.1839 98.7203 32.4015V35.6386H96.7651V32.4224C96.7651 32.1007 96.7184 31.8695 96.6258 31.7261C96.458 31.4629 96.1314 31.3362 95.651 31.3362C95.0842 31.3362 94.7068 31.4629 94.5069 31.7261C94.4032 31.8744 94.3531 32.0944 94.3531 32.3869V35.6407H92.3909V30.2639H94.2625V31.0193C94.4584 30.7845 94.6941 30.5861 94.9588 30.4331C95.3411 30.2283 95.8285 30.1225 96.4371 30.1225C97.0109 30.1225 97.4767 30.2116 97.8297 30.3892C98.0988 30.5375 98.3216 30.7576 98.4731 31.0249C98.7343 30.7174 99.0699 30.482 99.4479 30.3411C99.8836 30.1887 100.343 30.1147 100.804 30.1225C101.137 30.1214 101.468 30.1683 101.787 30.2618" fill="#E8E8E8"/>
<path d="M109.069 33.5425C109.059 34.0229 108.868 34.3502 108.517 34.5312C108.155 34.7124 107.754 34.8048 107.349 34.8007C107.111 34.8066 106.877 34.7501 106.668 34.6371C106.485 34.5312 106.389 34.3544 106.389 34.1121C106.389 33.8336 106.547 33.6351 106.857 33.5042C107.045 33.4262 107.338 33.3649 107.751 33.3106L108.187 33.2494C108.359 33.2268 108.53 33.1944 108.698 33.1526L109.069 33.0133V33.5425ZM107.221 32.4117C106.462 32.4813 105.891 32.5941 105.503 32.7599C104.789 33.0551 104.435 33.539 104.435 34.2061C104.435 34.7199 104.654 35.1113 105.098 35.3967C105.543 35.6822 106.101 35.8187 106.77 35.8187C107.257 35.8262 107.742 35.7368 108.195 35.5555C108.531 35.4214 108.846 35.2409 109.132 35.0193C109.144 35.1276 109.163 35.2351 109.188 35.341C109.214 35.4474 109.256 35.5492 109.312 35.6432H111.435V35.4288L111.152 35.2665C111.082 35.2025 111.043 35.0806 111.036 34.8989C111.021 34.6545 111.018 34.4463 111.018 34.2722V31.785C111.018 31.1312 110.699 30.6918 110.064 30.4621C109.363 30.2269 108.628 30.1125 107.889 30.1237C106.632 30.1237 105.745 30.3611 105.229 30.8269C104.905 31.1246 104.709 31.5352 104.68 31.9737H106.579C106.618 31.7841 106.715 31.6115 106.858 31.4808C107.051 31.3206 107.37 31.235 107.833 31.235C108.245 31.235 108.55 31.2781 108.76 31.3589C108.856 31.3905 108.939 31.4525 108.997 31.5357C109.055 31.6189 109.084 31.7186 109.08 31.8199C109.08 32.0016 108.941 32.1374 108.662 32.223C108.408 32.2907 108.147 32.332 107.884 32.3463L107.221 32.4117Z" fill="#E8E8E8"/>
<path d="M0.873865 41.0704H0V45.6667H0.873865V41.0704Z" fill="#E8E8E8"/>
<path d="M4.44694 44.0315C4.44694 43.604 4.57089 43.2823 4.8139 43.0671C5.05691 42.852 5.37721 42.735 5.76296 42.735C6.08717 42.7272 6.40333 42.8364 6.65354 43.0428C6.89028 43.2475 7.00726 43.5629 7.00726 43.9876C7.00726 44.4124 6.89307 44.7369 6.65911 44.9625C6.54135 45.0753 6.40218 45.1633 6.24981 45.2214C6.09745 45.2796 5.93499 45.3066 5.77202 45.3009C5.30758 45.3009 4.97057 45.179 4.76585 44.9374C4.55003 44.6861 4.4358 44.3633 4.44555 44.0322M5.63415 42.2538C4.99215 42.2538 4.49429 42.4293 4.15728 42.79C3.9907 42.9565 3.85892 43.1545 3.76962 43.3724C3.68032 43.5903 3.63528 43.8238 3.63714 44.0594C3.63714 44.5823 3.82375 44.9973 4.20254 45.3127C4.57986 45.6244 5.05643 45.7904 5.54572 45.7806C5.83559 45.7851 6.12394 45.7379 6.3973 45.6413C6.64753 45.5526 6.87092 45.4013 7.04626 45.202V45.6629H7.73699V41.0597H6.99891V42.7308C6.85631 42.603 6.69731 42.4949 6.52611 42.4091C6.24356 42.2946 5.94029 42.2401 5.63554 42.249" fill="#E8E8E8"/>
<path d="M11.2919 43.7296C11.2977 43.5886 11.3356 43.4508 11.4027 43.3266C11.4698 43.2024 11.5643 43.0952 11.6791 43.0131C11.9207 42.8223 12.2194 42.7297 12.5843 42.7297C13.0856 42.7297 13.4442 42.8641 13.6538 43.1412C13.7823 43.3123 13.8598 43.5163 13.8773 43.7296H11.2919ZM12.6386 42.2499C11.9826 42.2499 11.4548 42.415 11.0538 42.7513C10.8574 42.9065 10.6999 43.1054 10.5939 43.3321C10.4878 43.5589 10.4362 43.8073 10.4431 44.0575C10.4431 44.6025 10.6443 45.027 11.0468 45.3311C11.4493 45.6367 11.9374 45.7844 12.5244 45.7844C12.7361 45.7867 12.9477 45.7706 13.1566 45.7363C13.4718 45.6915 13.7727 45.5758 14.0367 45.3979C14.1836 45.2977 14.3132 45.1742 14.4204 45.0323C14.5195 44.9127 14.5892 44.7716 14.6237 44.6201H13.8501C13.7885 44.7726 13.6894 44.9069 13.5619 45.0108C13.3154 45.2057 12.9923 45.3018 12.5829 45.3018C12.147 45.3018 11.8232 45.2008 11.6171 44.994C11.411 44.7872 11.2919 44.515 11.2815 44.1738H14.6885C14.6885 43.8368 14.6655 43.5924 14.6189 43.4357C14.5665 43.217 14.4604 43.0148 14.3104 42.8474C14.111 42.6507 13.8689 42.5027 13.603 42.415C13.2944 42.3037 12.9686 42.2479 12.6407 42.2499" fill="#E8E8E8"/>
<path d="M18.0357 44.7776C18.0357 44.5646 18.1582 44.4044 18.4061 44.3097C18.612 44.2365 18.8272 44.1922 19.0453 44.1781L19.523 44.135C19.6704 44.122 19.8171 44.1011 19.9623 44.0723L20.3328 43.9616V44.4128C20.3328 44.7609 20.11 45.0102 19.6741 45.1634C19.4188 45.2562 19.1491 45.3033 18.8775 45.3027C18.6715 45.3083 18.4675 45.2603 18.2856 45.1634C18.2114 45.1298 18.1484 45.0756 18.1041 45.0072C18.0597 44.9388 18.036 44.8591 18.0357 44.7776ZM18.6916 43.7499C18.2557 43.7896 17.902 43.8927 17.6234 44.066C17.4992 44.1407 17.397 44.247 17.3274 44.3741C17.2578 44.5012 17.2232 44.6446 17.2272 44.7895C17.2272 45.0729 17.3665 45.3138 17.6367 45.5011C17.9068 45.6884 18.2633 45.7796 18.6978 45.7796C19.0338 45.7847 19.3679 45.7288 19.6838 45.6146C19.9353 45.5291 20.1678 45.3955 20.3683 45.2212C20.3838 45.3351 20.4322 45.4421 20.5075 45.529C20.6287 45.6682 20.8244 45.7378 21.098 45.7378L21.3591 45.7302L21.6376 45.6814V45.2685L21.4984 45.279L21.3772 45.2839L21.1683 45.2295L21.1182 45.0903V43.1588C21.1182 42.8405 20.949 42.6087 20.6155 42.4534C20.2673 42.3051 19.8259 42.2264 19.2758 42.2264C18.8473 42.2164 18.4216 42.299 18.028 42.4687C17.6708 42.6337 17.4835 42.9199 17.471 43.337H18.2069C18.2238 43.189 18.2906 43.0513 18.3963 42.9464C18.5676 42.7855 18.8559 42.7103 19.2653 42.7103C19.6135 42.7103 19.8871 42.7514 20.08 42.8405C20.1637 42.8732 20.2353 42.9308 20.2851 43.0056C20.3349 43.0803 20.3605 43.1685 20.3585 43.2583L20.3035 43.4742C20.245 43.5647 20.1204 43.6211 19.9428 43.6329L18.6916 43.7499Z" fill="#E8E8E8"/>
<path d="M24.6614 44.6018C24.6736 44.7649 24.7446 44.9181 24.8612 45.0328C25.0604 45.2117 25.4044 45.3009 25.9057 45.3009C26.174 45.3084 26.4411 45.263 26.6918 45.1672C26.9181 45.078 27.0254 44.9402 27.0254 44.7494C27.0254 44.606 26.9432 44.498 26.7642 44.4242C26.5392 44.3556 26.3096 44.3035 26.077 44.2683L25.4503 44.1548C25.0451 44.0851 24.7463 44.0044 24.5535 43.918C24.2151 43.7648 24.0389 43.5566 24.0389 43.2844C24.0389 42.9717 24.2032 42.7162 24.5263 42.5185C24.8494 42.3207 25.2825 42.2246 25.8256 42.2246C26.5365 42.2246 27.0511 42.3708 27.3645 42.6702C27.5622 42.8603 27.6597 43.065 27.6527 43.2809H26.9146C26.8967 43.1451 26.8286 43.021 26.7239 42.9327C26.5379 42.7844 26.2176 42.7106 25.7713 42.7106C25.4698 42.7106 25.2351 42.7496 25.084 42.8311C24.933 42.9126 24.8473 43.0177 24.8473 43.1514C24.8473 43.2851 24.9531 43.4167 25.153 43.4995C25.3232 43.5638 25.4996 43.6105 25.6794 43.6388L26.2009 43.7279C26.7705 43.824 27.1563 43.9215 27.3443 44.0155C27.6506 44.1548 27.8017 44.3838 27.8017 44.6874C27.8017 44.991 27.6409 45.2445 27.3241 45.4589C27.0073 45.6734 26.5177 45.7799 25.8702 45.7799C25.1739 45.7799 24.6781 45.6678 24.3829 45.4394C24.0876 45.211 23.9303 44.9339 23.9156 44.599L24.6614 44.6018Z" fill="#E8E8E8"/>
<path d="M35.0706 41.3013C35.2565 41.114 35.6102 41.0186 36.1317 41.0186H36.2828L36.4625 41.0248V41.5352H36.184C35.9409 41.5352 35.8017 41.5805 35.7543 41.6675C35.707 41.7545 35.6889 41.9767 35.6889 42.3332H36.459V42.7858H35.6924V45.6684H34.9028V42.7858H34.2587V42.3353H34.9028V41.8151C34.9125 41.5826 34.9724 41.414 35.0706 41.3019" fill="#E8E8E8"/>
<path d="M40.8034 45.3017C40.339 45.3017 39.9915 45.1847 39.7757 44.9465C39.5581 44.7021 39.4434 44.383 39.4554 44.056C39.4447 43.7104 39.5584 43.3724 39.7757 43.1034C39.9915 42.8423 40.3425 42.7107 40.8132 42.7107C41.3514 42.7107 41.7274 42.8625 41.9433 43.171C42.0909 43.3984 42.1639 43.6661 42.1522 43.9369C42.1543 44.2732 42.0537 44.6021 41.8639 44.8797C41.671 45.1652 41.3208 45.3037 40.8027 45.3037M40.8278 42.2289C40.1607 42.2289 39.626 42.396 39.2367 42.7295C38.8364 43.0582 38.64 43.5038 38.64 44.0671C38.64 44.5921 38.8308 45.0085 39.2033 45.3205C39.5758 45.6324 40.0855 45.7863 40.7171 45.7863C41.4872 45.7863 42.0505 45.6122 42.4161 45.2627C42.7816 44.9131 42.9592 44.4647 42.9592 43.9279C42.9592 43.3708 42.7503 42.9489 42.3402 42.6641C41.9301 42.3793 41.4287 42.2289 40.8278 42.2289Z" fill="#E8E8E8"/>
<path d="M45.7229 42.3169H46.4693V42.8892C46.5264 42.7785 46.6824 42.6441 46.9254 42.4861C47.169 42.3258 47.4555 42.2433 47.7471 42.2493H47.8257L47.9984 42.2653V42.8454L47.878 42.8321L47.7471 42.8252C47.3481 42.8252 47.0424 42.9192 46.8265 43.1037C46.6107 43.2882 46.5097 43.4992 46.5097 43.7373V45.6696H45.7229V42.3169Z" fill="#E8E8E8"/>
<path d="M54.7133 41.0635H55.4966V42.7576C55.6868 42.5722 55.914 42.4292 56.1634 42.3379C56.4128 42.2466 56.6786 42.209 56.9435 42.2277C57.6141 42.2277 58.0806 42.3962 58.3187 42.736C58.451 42.9212 58.513 43.1816 58.513 43.5138V45.6674H57.7032V43.5472C57.7032 43.2993 57.6579 43.119 57.5723 43.0055C57.433 42.8175 57.1636 42.7269 56.7757 42.7269C56.4653 42.7221 56.16 42.8059 55.8956 42.9686C55.631 43.1287 55.4966 43.433 55.4966 43.8786V45.6653H54.7133V41.0635Z" fill="#E8E8E8"/>
<path d="M62.0402 43.7296C62.0461 43.5882 62.0844 43.4501 62.1521 43.3258C62.2198 43.2016 62.3152 43.0946 62.4308 43.0131C62.6689 42.8223 62.9746 42.7297 63.3318 42.7297C63.8359 42.7297 64.1897 42.8641 64.4048 43.1412C64.5305 43.3135 64.6063 43.517 64.6242 43.7296H62.0402ZM63.3903 42.2499C62.7344 42.2499 62.2017 42.4149 61.7993 42.7513C61.6041 42.9074 61.4477 43.1065 61.3424 43.3331C61.237 43.5598 61.1856 43.8077 61.1921 44.0575C61.1921 44.6027 61.3933 45.0275 61.7993 45.331C62.2052 45.6346 62.6829 45.7843 63.2692 45.7843C63.4821 45.787 63.6948 45.771 63.9049 45.7363C64.221 45.6909 64.5229 45.5753 64.7885 45.3979C64.9337 45.2966 65.0623 45.1733 65.1694 45.0323C65.2707 44.9143 65.3405 44.7725 65.372 44.6201H64.6061C64.5441 44.7733 64.4436 44.9078 64.3143 45.0107C64.0678 45.2057 63.7406 45.3018 63.3353 45.3018C62.8987 45.3018 62.5756 45.2008 62.3695 44.994C62.1634 44.7872 62.0437 44.515 62.0339 44.1738H65.4409C65.4409 43.8368 65.4173 43.5924 65.3713 43.4357C65.3218 43.216 65.2154 43.0131 65.0628 42.8473C64.8624 42.6502 64.6191 42.5022 64.3519 42.4149C64.0457 42.3039 63.7223 42.248 63.3966 42.2499" fill="#E8E8E8"/>
<path d="M68.8034 44.7776C68.8034 44.5645 68.9225 44.4043 69.1669 44.3096C69.374 44.2369 69.5899 44.1926 69.8089 44.178L70.2838 44.1349L70.7266 44.0722L71.0971 43.9615V44.4127C71.0971 44.7608 70.8743 45.0101 70.4412 45.1633C70.1837 45.2561 69.912 45.3032 69.6383 45.3026C69.4334 45.3079 69.2307 45.2599 69.0499 45.1633C68.9761 45.1295 68.9136 45.0752 68.8698 45.0068C68.8261 44.9383 68.8031 44.8588 68.8034 44.7776ZM69.4587 43.7498C69.0158 43.7895 68.6586 43.8926 68.3975 44.0659C68.2706 44.1384 68.1658 44.244 68.0943 44.3715C68.0228 44.4989 67.9873 44.6433 67.9915 44.7894C67.9915 45.0728 68.1259 45.3137 68.401 45.501C68.676 45.6883 69.0228 45.7795 69.4621 45.7795C69.7981 45.7844 70.1321 45.7285 70.4481 45.6145C70.7002 45.5284 70.9335 45.3949 71.1354 45.2211C71.1503 45.3337 71.1956 45.44 71.2663 45.5289C71.3902 45.6681 71.588 45.7378 71.8595 45.7378L72.1213 45.7301L72.3999 45.6814V45.2684L72.2606 45.2789L72.1429 45.2838L71.9299 45.2295L71.8797 45.0902V43.1587C71.8797 42.8404 71.7105 42.6086 71.3735 42.4533C71.0254 42.305 70.5867 42.2263 70.0338 42.2263C69.6076 42.2169 69.1844 42.2995 68.793 42.4686C68.4323 42.6336 68.2443 42.9198 68.236 43.3369H68.9692C69.0026 43.1628 69.0576 43.0333 69.1551 42.9463C69.3298 42.7854 69.6146 42.7102 70.0234 42.7102C70.3715 42.7102 70.6459 42.7513 70.8422 42.8405C70.9265 42.8722 70.9988 42.9296 71.0487 43.0045C71.0987 43.0795 71.1239 43.1682 71.1208 43.2582L71.0692 43.4741C71.01 43.5646 70.8896 43.621 70.7051 43.6328L69.4587 43.7498Z" fill="#E8E8E8"/>
<path d="M75.755 41.0645H74.9689V45.6677H75.755V41.0645Z" fill="#E8E8E8"/>
<path d="M78.8775 41.3936H79.6608V42.3189H80.41V42.7862H79.6608V44.9544C79.6575 45.0071 79.6725 45.0593 79.7033 45.1021C79.7342 45.1449 79.779 45.1756 79.83 45.1891L80.135 45.2204H80.2527L80.41 45.2128V45.6695L80.1315 45.7092L79.8112 45.7225C79.4512 45.7225 79.1978 45.6528 79.0703 45.5184C79.0047 45.4492 78.9537 45.3673 78.9205 45.2778C78.8874 45.1883 78.8727 45.0929 78.8775 44.9976V42.7862H78.2424V42.3175H78.8775V41.3936Z" fill="#E8E8E8"/>
<path d="M82.9701 41.0635H83.7597V42.7576C83.9078 42.6192 84.0744 42.502 84.2548 42.4094C84.5547 42.2826 84.8784 42.2218 85.2038 42.2312C85.8807 42.2312 86.3377 42.4006 86.5749 42.7395C86.7072 42.9247 86.7698 43.1851 86.7698 43.5172V45.6709H85.96V43.5507C85.96 43.3028 85.921 43.1224 85.8326 43.0089C85.6933 42.8209 85.4301 42.7304 85.036 42.7304C84.7256 42.7249 84.4201 42.8088 84.1559 42.972C83.8871 43.1322 83.7597 43.4365 83.7597 43.8821V45.6688H82.9701V41.0635Z" fill="#E8E8E8"/>
<path d="M92.7975 42.5023C93.1248 42.682 93.3225 42.9981 93.3908 43.4451H92.629C92.5853 43.2437 92.4749 43.0629 92.3157 42.932C92.1479 42.7927 91.8763 42.7286 91.5121 42.7286C91.0143 42.7286 90.6557 42.8985 90.4461 43.255C90.2993 43.5084 90.227 43.798 90.2372 44.0906C90.2278 44.3994 90.3321 44.701 90.5303 44.938C90.7288 45.1692 91.0386 45.2861 91.4613 45.2861C91.7879 45.2861 92.0448 45.2123 92.2342 45.0717C92.4276 44.9257 92.5667 44.7194 92.6297 44.4854H93.3908C93.3093 44.9303 93.0858 45.2513 92.7425 45.4602C92.3888 45.6691 91.939 45.7687 91.4028 45.7687C90.7942 45.7687 90.3061 45.6085 89.9489 45.2896C89.7729 45.1437 89.632 44.9601 89.5368 44.7522C89.4416 44.5444 89.3944 44.3178 89.3988 44.0892C89.3988 43.5029 89.6015 43.0448 89.9942 42.7196C90.3869 42.3944 90.8994 42.2322 91.5128 42.2322C92.0413 42.2322 92.471 42.3276 92.7975 42.5107" fill="#E8E8E8"/>
<path d="M96.5625 44.7776C96.5625 44.5645 96.6844 44.4044 96.9295 44.3097C97.1364 44.2365 97.3525 44.1923 97.5715 44.1781L98.0499 44.1349C98.1962 44.1219 98.3417 44.101 98.4857 44.0722C98.6131 44.05 98.7375 44.0129 98.8562 43.9615V44.4127C98.8562 44.7609 98.6396 45.0102 98.1968 45.1634C97.9417 45.2561 97.6723 45.3033 97.4009 45.3026C97.1947 45.3096 96.9905 45.2615 96.809 45.1634C96.7349 45.13 96.672 45.0758 96.6282 45.0072C96.5845 44.9387 96.5616 44.8589 96.5625 44.7776ZM97.2143 43.7499C96.7784 43.7895 96.4247 43.8926 96.1531 44.066C96.0263 44.1385 95.9215 44.2441 95.85 44.3715C95.7785 44.4989 95.7429 44.6434 95.7472 44.7894C95.7472 45.0728 95.8816 45.3137 96.1649 45.5011C96.433 45.6863 96.7868 45.7796 97.2192 45.7796C97.5562 45.7849 97.8915 45.729 98.2086 45.6146C98.4615 45.5303 98.6952 45.3966 98.8959 45.2211C98.9102 45.3354 98.9587 45.4427 99.0351 45.5289C99.1556 45.6682 99.3485 45.7378 99.6249 45.7378L99.8832 45.7301L100.162 45.6814V45.2685L100.022 45.2789L99.9055 45.2838L99.689 45.2295L99.6423 45.0902V43.1587C99.6423 42.8405 99.4724 42.6086 99.1354 42.4533C98.7984 42.2981 98.3444 42.2291 97.7978 42.2291C97.3675 42.2196 96.9401 42.3022 96.5444 42.4715C96.1838 42.6365 96.0027 42.9227 95.9874 43.3397H96.715C96.7342 43.1917 96.8021 43.0543 96.9079 42.9491C97.0757 42.7883 97.364 42.7131 97.7762 42.7131C98.1299 42.7131 98.4029 42.7541 98.5881 42.8433C98.6725 42.8748 98.7449 42.9322 98.7949 43.0072C98.8449 43.0822 98.87 43.171 98.8666 43.2611L98.8179 43.4769C98.7559 43.5674 98.6354 43.6238 98.4579 43.6357L97.2143 43.7499Z" fill="#E8E8E8"/>
<path d="M102.724 42.3169H103.47V42.8892C103.529 42.7785 103.687 42.6441 103.926 42.4861C104.171 42.3258 104.459 42.2433 104.751 42.2493H104.827L105.006 42.2653V42.8454L104.875 42.8321L104.748 42.8252C104.352 42.8252 104.044 42.9192 103.831 43.1037C103.618 43.2882 103.507 43.4992 103.507 43.7373V45.6696H102.724V42.3169Z" fill="#E8E8E8"/>
<path d="M108.039 43.7296C108.047 43.5893 108.085 43.4524 108.151 43.3285C108.218 43.2047 108.31 43.097 108.423 43.0131C108.686 42.8187 109.007 42.7188 109.334 42.7297C109.835 42.7297 110.189 42.8641 110.403 43.1412C110.532 43.3122 110.609 43.5163 110.626 43.7296H108.039ZM109.389 42.2499C108.734 42.2499 108.205 42.415 107.801 42.7513C107.605 42.9066 107.448 43.1056 107.342 43.3323C107.236 43.559 107.184 43.8073 107.191 44.0575C107.191 44.6027 107.392 45.0275 107.798 45.3311C108.204 45.6346 108.688 45.7844 109.268 45.7844C109.481 45.787 109.693 45.7709 109.903 45.7363C110.219 45.6916 110.52 45.5759 110.784 45.3979C110.931 45.2977 111.061 45.1742 111.168 45.0323C111.27 44.9138 111.341 44.7724 111.377 44.6201H110.604C110.543 44.7737 110.442 44.9084 110.312 45.0108C110.066 45.2057 109.739 45.3018 109.337 45.3018C108.898 45.3018 108.581 45.2008 108.368 44.994C108.155 44.7872 108.049 44.515 108.032 44.1738H111.439C111.448 43.926 111.426 43.6782 111.374 43.4357C111.319 43.2167 111.211 43.0146 111.059 42.8474C110.859 42.6504 110.615 42.5024 110.348 42.415C110.042 42.3037 109.718 42.2478 109.392 42.2499" fill="#E8E8E8"/>
<path d="M111.436 38.7998H0V39.2016H111.436V38.7998Z" fill="#E8E8E8"/>
<path d="M111.436 47.6035H0V48.0004H111.436V47.6035Z" fill="#E8E8E8"/>
</svg>
