<svg width="115" height="40" viewBox="0 0 115 40" fill="none" xmlns="http://www.w3.org/2000/svg">
<path d="M21.6908 40H0V0H21.6908V40ZM1.52849 38.4689H20.1603V1.53169H1.53041L1.52849 38.4689Z" fill="#E8E8E8"/>
<path d="M40.6642 40H28.2436V0H40.661L40.6642 40ZM29.7798 38.4683H39.1331V1.53169H29.7798V38.4683Z" fill="#E8E8E8"/>
<path d="M24.8964 31.4992C22.2981 31.4994 19.7801 30.5985 17.7715 28.9503C15.7629 27.302 14.388 25.0083 13.881 22.4599C13.3741 19.9115 13.7664 17.2662 14.9912 14.9747C16.2159 12.6831 18.1974 10.8872 20.5979 9.89281C22.9984 8.89844 25.6694 8.76718 28.1559 9.5214C30.6423 10.2756 32.7903 11.8686 34.2338 14.0291C35.6774 16.1895 36.3272 18.7836 36.0725 21.3694C35.8178 23.9552 34.6744 26.3727 32.8371 28.2099C31.7968 29.2561 30.5594 30.0855 29.1963 30.6502C27.8333 31.2148 26.3717 31.5034 24.8964 31.4992ZM24.8964 10.5689C19.5486 10.5689 15.1974 14.9214 15.1974 20.2679C15.1974 25.6144 19.5499 29.9669 24.8964 29.9669C30.2429 29.9669 34.596 25.6144 34.596 20.2679C34.596 14.9214 30.2448 10.5702 24.8964 10.5702V10.5689Z" fill="#E8E8E8"/>
<path d="M44.7466 15.6722V9.16455H46.0402V11.7248H48.5755V9.16455H49.8691V15.6722H48.5755V12.827H46.0402V15.6722H44.7466Z" fill="#E8E8E8"/>
<path d="M53.8862 14.1719L55.11 14.3805C54.9529 14.8363 54.7046 15.1834 54.3649 15.4219C54.0253 15.6605 53.6007 15.7795 53.0912 15.7791C52.2843 15.7791 51.6869 15.5113 51.299 14.9758C50.9918 14.5474 50.8381 14.0057 50.8381 13.3507C50.8381 12.5698 51.0391 11.9581 51.4411 11.5156C51.6316 11.3004 51.8668 11.1295 52.1303 11.0149C52.3937 10.9002 52.6791 10.8446 52.9664 10.8518C53.6572 10.8518 54.2021 11.0833 54.6011 11.5463C55.0001 12.0093 55.191 12.7189 55.174 13.6752H52.0984C52.1074 14.0451 52.2066 14.3327 52.3961 14.538C52.4848 14.6374 52.5941 14.7163 52.7163 14.7693C52.8385 14.8224 52.9708 14.8483 53.104 14.8452C53.2794 14.8508 53.4512 14.7944 53.5892 14.6859C53.7206 14.5787 53.8196 14.4074 53.8862 14.1719ZM53.9566 12.9116C53.9476 12.5506 53.8556 12.276 53.6807 12.0878C53.6005 11.9976 53.5018 11.9258 53.3914 11.8772C53.2809 11.8286 53.1613 11.8044 53.0406 11.8062C52.9148 11.8034 52.7899 11.8286 52.675 11.88C52.5601 11.9313 52.4581 12.0076 52.3762 12.1032C52.2017 12.3016 52.1164 12.5711 52.1202 12.9116H53.9566Z" fill="#E8E8E8"/>
<path d="M57.0934 12.3963L55.979 12.1921C56.1045 11.7364 56.3202 11.3991 56.6262 11.1802C56.9321 10.9613 57.3866 10.8518 57.9895 10.8518C58.5374 10.8518 58.9453 10.9175 59.2133 11.0489C59.4813 11.1804 59.6701 11.3477 59.7798 11.5508C59.8886 11.7539 59.9432 12.126 59.9436 12.667L59.9302 14.1232C59.9231 14.4291 59.9433 14.7349 59.9904 15.0372C60.0377 15.2563 60.1118 15.4687 60.2112 15.6696H58.9951C58.9631 15.5873 58.9236 15.4646 58.8766 15.3016C58.8568 15.2273 58.8421 15.1787 58.8331 15.155C58.6398 15.3508 58.4117 15.5088 58.1604 15.621C57.9179 15.7256 57.6564 15.7785 57.3923 15.7765C56.9144 15.7765 56.5376 15.6449 56.262 15.3816C56.1268 15.2534 56.0201 15.0982 55.949 14.926C55.8779 14.7539 55.8438 14.5687 55.8491 14.3824C55.8449 14.1322 55.91 13.8856 56.0373 13.67C56.1618 13.4618 56.345 13.295 56.5641 13.1906C56.7894 13.0797 57.115 12.9828 57.5408 12.9C58.1152 12.7908 58.5129 12.6886 58.7339 12.5934V12.4693C58.7339 12.2299 58.6757 12.0592 58.5592 11.9572C58.4427 11.8552 58.2227 11.8042 57.8993 11.8042C57.6803 11.8042 57.5097 11.8469 57.3872 11.9322C57.2647 12.0176 57.1668 12.1723 57.0934 12.3963ZM58.7371 13.4083C58.4914 13.4851 58.2418 13.5492 57.9895 13.6003C57.6481 13.6741 57.4252 13.7464 57.3206 13.8173C57.2471 13.8647 57.1865 13.9297 57.1446 14.0066C57.1027 14.0834 57.0807 14.1695 57.0806 14.257C57.0798 14.3416 57.0964 14.4254 57.1294 14.5033C57.1625 14.5811 57.2112 14.6513 57.2726 14.7095C57.337 14.773 57.4135 14.8228 57.4977 14.8558C57.5819 14.8888 57.6719 14.9044 57.7623 14.9015C57.9921 14.8986 58.2146 14.8206 58.396 14.6794C58.5368 14.5782 58.64 14.4329 58.6891 14.2666C58.7211 14.1597 58.7371 13.9574 58.7371 13.6585V13.4083Z" fill="#E8E8E8"/>
<path d="M61.1545 15.6722V9.16455H62.3828V15.6722H61.1545Z" fill="#E8E8E8"/>
<path d="M65.7693 10.958V11.9527H64.9301V13.8524C64.9301 14.2365 64.9378 14.4612 64.9545 14.5252C64.9708 14.5889 65.0094 14.6448 65.0633 14.6826C65.1238 14.726 65.1968 14.7485 65.2713 14.7466C65.4412 14.7339 65.6079 14.6934 65.7648 14.6269L65.8698 15.5947C65.5627 15.7232 65.2323 15.7866 64.8994 15.781C64.6943 15.7842 64.4907 15.7456 64.3009 15.6677C64.1452 15.6094 64.0095 15.5077 63.9099 15.3745C63.8166 15.2276 63.7576 15.0616 63.737 14.8887C63.711 14.7436 63.6978 14.4507 63.6974 14.0099V11.9527H63.1341V10.958H63.6974V10.0216L64.9301 9.29321V10.9574L65.7693 10.958Z" fill="#E8E8E8"/>
<path d="M67.8469 9.16455V11.5571C68.2433 11.0878 68.7167 10.8531 69.2672 10.8531C69.5308 10.8491 69.792 10.9035 70.0321 11.0124C70.2357 11.1011 70.4124 11.242 70.5441 11.4208C70.6592 11.5864 70.7396 11.7737 70.7803 11.9713C70.831 12.2809 70.8524 12.5947 70.8443 12.9083V15.6734H69.616V13.181C69.616 12.6869 69.5928 12.373 69.5462 12.2395C69.5016 12.1092 69.4146 11.9976 69.2992 11.9226C69.1664 11.8399 69.0119 11.7988 68.8556 11.8048C68.6627 11.8016 68.4729 11.854 68.309 11.9559C68.1437 12.0631 68.0198 12.2234 67.9576 12.4104C67.8833 12.613 67.8462 12.9117 67.8462 13.3065V15.6677H66.6179V9.16455H67.8469Z" fill="#E8E8E8"/>
<path d="M76.1377 12.3521L74.9273 12.5742C74.8846 12.3285 74.792 12.1435 74.6495 12.0193C74.4918 11.8899 74.2919 11.8233 74.0882 11.8324C73.9498 11.8266 73.812 11.8524 73.6851 11.9079C73.5582 11.9633 73.4456 12.047 73.3559 12.1524C73.1737 12.3658 73.0826 12.7247 73.0826 13.229C73.0826 13.7885 73.1752 14.1836 73.3604 14.4145C73.4485 14.5268 73.562 14.6167 73.6914 14.6769C73.8209 14.737 73.9628 14.7658 74.1054 14.7607C74.3163 14.77 74.5227 14.6975 74.6815 14.5585C74.83 14.4241 74.9348 14.1926 74.9958 13.864L76.2023 14.0727C76.0769 14.6346 75.8364 15.0592 75.481 15.3464C75.1255 15.6336 74.6491 15.7772 74.0517 15.7772C73.3732 15.7772 72.8319 15.5595 72.4278 15.1243C72.0237 14.689 71.8221 14.087 71.8229 13.318C71.8229 12.5397 72.0254 11.9337 72.4304 11.5002C72.8353 11.0667 73.3828 10.8505 74.0728 10.8518C74.6386 10.8518 75.0882 10.9753 75.4214 11.2224C75.7547 11.4695 75.9934 11.8461 76.1377 12.3521Z" fill="#E8E8E8"/>
<path d="M77.9859 12.3963L76.8715 12.1921C76.9961 11.7364 77.2116 11.3991 77.518 11.1802C77.8244 10.9613 78.2791 10.8518 78.882 10.8518C79.4299 10.8518 79.8379 10.9175 80.1058 11.0489C80.3738 11.1804 80.5624 11.3477 80.6716 11.5508C80.7813 11.7539 80.8359 12.126 80.8355 12.667L80.8227 14.1232C80.8147 14.4299 80.8344 14.7367 80.8816 15.0398C80.9283 15.259 81.0025 15.4715 81.1024 15.6722H79.8863C79.8543 15.5898 79.815 15.4672 79.7685 15.3041C79.748 15.2299 79.7333 15.1813 79.725 15.1576C79.5314 15.3534 79.3031 15.5114 79.0516 15.6235C78.8092 15.7282 78.5476 15.7812 78.2835 15.7791C77.8056 15.7791 77.429 15.6474 77.1538 15.3842C77.0185 15.256 76.9117 15.1008 76.8405 14.9287C76.7693 14.7565 76.7351 14.5713 76.7403 14.385C76.7361 14.1347 76.8012 13.8881 76.9285 13.6726C77.0531 13.4645 77.2364 13.2977 77.4553 13.1932C77.6814 13.0822 78.007 12.9854 78.432 12.9026C79.0064 12.7934 79.4041 12.6912 79.6251 12.596V12.4718C79.6251 12.2324 79.5669 12.0618 79.4504 11.9598C79.3339 11.8578 79.1139 11.8068 78.7905 11.8068C78.5722 11.8068 78.4013 11.8503 78.2784 11.9348C78.1555 12.0193 78.0614 12.1774 77.9859 12.3963ZM79.629 13.4083C79.3835 13.4851 79.1341 13.5492 78.882 13.6003C78.5406 13.6741 78.3177 13.7464 78.2131 13.8173C78.1395 13.8646 78.0789 13.9297 78.0368 14.0065C77.9948 14.0833 77.9727 14.1694 77.9725 14.257C77.9715 14.3416 77.9881 14.4255 78.0211 14.5033C78.0542 14.5812 78.103 14.6514 78.1645 14.7095C78.2288 14.7731 78.3053 14.823 78.3895 14.856C78.4737 14.889 78.5638 14.9045 78.6541 14.9015C78.8839 14.8985 79.1064 14.8205 79.2878 14.6794C79.4283 14.578 79.5312 14.4328 79.5803 14.2666C79.6123 14.1597 79.6283 13.9574 79.6283 13.6585L79.629 13.4083Z" fill="#E8E8E8"/>
<path d="M83.2259 15.6723H81.9982V10.9582H83.1388V11.6283C83.3343 11.3121 83.5099 11.1037 83.6656 11.003C83.8237 10.9014 84.0083 10.8488 84.1962 10.8519C84.4825 10.8537 84.7626 10.9351 85.0053 11.0868L84.6251 12.175C84.4177 12.0393 84.2257 11.9712 84.049 11.9708C83.8909 11.9665 83.7362 12.0176 83.6119 12.1154C83.4928 12.2114 83.3989 12.3853 83.3302 12.6371C83.2615 12.8889 83.2267 13.4154 83.2259 14.2168V15.6723Z" fill="#E8E8E8"/>
<path d="M88.2179 14.1719L89.4417 14.3805C89.2851 14.8363 89.0367 15.1834 88.6966 15.4219C88.3565 15.6605 87.932 15.7795 87.4229 15.7791C86.616 15.7791 86.0186 15.5113 85.6307 14.9758C85.3247 14.5465 85.1718 14.0048 85.1718 13.3507C85.1718 12.5698 85.3727 11.9581 85.7747 11.5156C85.9652 11.3005 86.2004 11.1296 86.4639 11.0149C86.7274 10.9003 87.0127 10.8446 87.3 10.8518C87.9904 10.8518 88.5353 11.0833 88.9347 11.5463C89.3341 12.0093 89.5262 12.7189 89.5108 13.6752H86.434C86.4425 14.0451 86.5415 14.3327 86.731 14.538C86.8196 14.6376 86.9288 14.7167 87.0511 14.77C87.1733 14.8232 87.3056 14.8493 87.4389 14.8465C87.6143 14.8522 87.7862 14.7958 87.9241 14.6871C88.0534 14.5792 88.1513 14.4074 88.2179 14.1719ZM88.2883 12.9116C88.2793 12.5506 88.1873 12.276 88.0124 12.0878C87.9322 11.9976 87.8335 11.9257 87.7231 11.8771C87.6126 11.8285 87.493 11.8043 87.3723 11.8062C87.2465 11.8033 87.1216 11.8284 87.0066 11.8798C86.8917 11.9311 86.7897 12.0074 86.7079 12.1032C86.5325 12.3016 86.4472 12.571 86.4519 12.9116H88.2883Z" fill="#E8E8E8"/>
<path d="M44.7421 27.2498V20.7422H46.8185C47.605 20.7422 48.117 20.7746 48.3547 20.8395C48.7264 20.9408 49.052 21.1668 49.277 21.4796C49.5245 21.8068 49.6483 22.2293 49.6483 22.7469C49.6483 23.1463 49.577 23.4821 49.4345 23.7544C49.3067 24.008 49.1202 24.2274 48.8904 24.3944C48.6903 24.5407 48.4628 24.6454 48.2216 24.7023C47.9122 24.7646 47.4641 24.7958 46.8774 24.7958H46.037V27.2504L44.7421 27.2498ZM46.037 21.8431V23.6897H46.7411C47.2531 23.6897 47.5945 23.6556 47.7652 23.5873C47.93 23.5252 48.0713 23.4133 48.1697 23.2673C48.2688 23.1173 48.3199 22.9407 48.3163 22.761C48.3243 22.5468 48.2509 22.3376 48.1108 22.1753C47.9755 22.0224 47.7918 21.9205 47.5904 21.8866C47.436 21.8572 47.1258 21.8425 46.6598 21.8425L46.037 21.8431Z" fill="#E8E8E8"/>
<path d="M51.9264 20.7422V23.1348C52.3228 22.6654 52.7962 22.4307 53.3467 22.4307C53.6104 22.4269 53.8716 22.4815 54.1116 22.5907C54.3156 22.6789 54.4923 22.8198 54.6237 22.9991C54.7386 23.1648 54.8187 23.352 54.8592 23.5495C54.91 23.859 54.9314 24.1725 54.9232 24.486V27.2517H53.6987V24.7593C53.6987 24.2651 53.6753 23.9515 53.6283 23.8184C53.5846 23.687 53.4977 23.5742 53.3819 23.4983C53.249 23.416 53.0946 23.375 52.9383 23.3806C52.7454 23.3775 52.5557 23.4299 52.3917 23.5316C52.2261 23.639 52.102 23.7994 52.0397 23.9867C51.9654 24.1894 51.9283 24.4881 51.9283 24.8828V27.2447H50.7V20.7422H51.9264Z" fill="#E8E8E8"/>
<path d="M57.09 23.974L55.975 23.7698C56.1005 23.3141 56.3162 22.9767 56.6221 22.7578C56.9281 22.5389 57.3826 22.4293 57.9855 22.4288C58.5334 22.4288 58.9413 22.4948 59.2093 22.6266C59.4773 22.7585 59.6661 22.9257 59.7758 23.1284C59.8846 23.3307 59.9392 23.7028 59.9396 24.2447L59.9268 25.7009C59.919 26.0076 59.9389 26.3144 59.9864 26.6175C60.0332 26.8366 60.1072 27.049 60.2065 27.2499H58.9904C58.9584 27.1673 58.9187 27.0444 58.8726 26.8812C58.8522 26.8076 58.8374 26.7589 58.8285 26.7346C58.6353 26.9307 58.4071 27.089 58.1558 27.2012C57.9143 27.3052 57.6538 27.3579 57.3909 27.3561C56.9125 27.3561 56.536 27.2245 56.2611 26.9612C56.1257 26.8333 56.0188 26.6783 55.9476 26.5062C55.8763 26.3341 55.8423 26.1489 55.8477 25.9627C55.8434 25.7124 55.9085 25.4658 56.0358 25.2503C56.1605 25.0421 56.3437 24.8754 56.5626 24.7709C56.7883 24.6595 57.1139 24.5624 57.5394 24.4796C58.1133 24.37 58.511 24.268 58.7325 24.1737V24.0495C58.7325 23.8097 58.6742 23.639 58.5577 23.5374C58.4412 23.4359 58.2213 23.3847 57.8978 23.3838C57.6795 23.3838 57.5087 23.428 57.3858 23.515C57.2629 23.6021 57.1656 23.7551 57.09 23.974ZM58.7331 24.9859C58.4874 25.0627 58.2378 25.1268 57.9855 25.1779C57.6441 25.2522 57.4214 25.3247 57.3173 25.3956C57.2434 25.4427 57.1826 25.5077 57.1406 25.5846C57.0985 25.6614 57.0765 25.7477 57.0766 25.8353C57.0757 25.9199 57.0923 26.0037 57.1254 26.0816C57.1584 26.1595 57.2072 26.2297 57.2686 26.2878C57.3328 26.3514 57.4093 26.4012 57.4933 26.4342C57.5774 26.4672 57.6674 26.4828 57.7576 26.4798C57.9877 26.4771 58.2104 26.3991 58.3919 26.2577C58.5327 26.1565 58.6357 26.0112 58.6845 25.8449C58.7165 25.7386 58.7325 25.536 58.7325 25.2368L58.7331 24.9859Z" fill="#E8E8E8"/>
<path d="M62.3264 27.2501H61.0981V22.536H62.2393V23.2061C62.4348 22.8891 62.6101 22.6804 62.7655 22.5801C62.9239 22.4788 63.1087 22.4263 63.2967 22.4291C63.5828 22.431 63.8628 22.5125 64.1051 22.6646L63.7249 23.7527C63.518 23.6162 63.326 23.5481 63.1489 23.5485C62.9908 23.5439 62.8361 23.5949 62.7117 23.6926C62.5918 23.789 62.4979 23.9629 62.4301 24.2142C62.3622 24.4656 62.3279 24.9923 62.327 25.7946L62.3264 27.2501Z" fill="#E8E8E8"/>
<path d="M64.5419 22.5359H65.6742V23.1792C66.0791 22.6791 66.5613 22.4291 67.1207 22.4291C67.3906 22.4223 67.6575 22.4867 67.8946 22.616C68.1226 22.7501 68.3088 22.9452 68.4322 23.1792C68.6115 22.9484 68.8361 22.7567 69.0921 22.616C69.3248 22.4921 69.5845 22.4279 69.8481 22.4291C70.1504 22.4195 70.4495 22.4925 70.7134 22.6403C70.9523 22.7836 71.1379 23.0009 71.2421 23.2592C71.3275 23.4606 71.3702 23.7862 71.3702 24.236V27.2501H70.1425V24.5554C70.1425 24.086 70.0998 23.7843 70.0145 23.6503C69.9006 23.4724 69.7256 23.3834 69.4896 23.3834C69.3151 23.3845 69.1454 23.4405 69.0044 23.5434C68.8466 23.6593 68.7314 23.824 68.6767 24.012C68.6093 24.2172 68.5758 24.5419 68.5762 24.9861V27.2501H67.3479V24.6667C67.3479 24.2076 67.3266 23.9117 67.2839 23.779C67.2504 23.6602 67.1789 23.5557 67.0804 23.4813C66.969 23.4105 66.8384 23.3763 66.7066 23.3834C66.5239 23.3809 66.345 23.4353 66.1945 23.5389C66.0389 23.6476 65.9242 23.8054 65.8687 23.987C65.8026 24.182 65.7697 24.5059 65.7702 24.9586V27.2494H64.5419V22.5359Z" fill="#E8E8E8"/>
<path d="M73.5101 23.974L72.3957 23.7698C72.5212 23.3141 72.7369 22.9767 73.0429 22.7578C73.3488 22.5389 73.8033 22.4293 74.4062 22.4288C74.9541 22.4288 75.362 22.4948 75.63 22.6266C75.898 22.7585 76.0868 22.9257 76.1965 23.1284C76.3053 23.3307 76.3599 23.7028 76.3603 24.2447L76.3469 25.7009C76.3393 26.0075 76.359 26.3143 76.4058 26.6175C76.4532 26.8365 76.5274 27.0489 76.6266 27.2499H75.4105C75.3785 27.1675 75.339 27.0446 75.2921 26.8812C75.2722 26.8076 75.2575 26.7589 75.2485 26.7346C75.0552 26.9306 74.8271 27.0888 74.5758 27.2012C74.3333 27.3056 74.0717 27.3583 73.8077 27.3561C73.3298 27.3561 72.953 27.2245 72.6774 26.9612C72.5421 26.8332 72.4355 26.6781 72.3643 26.506C72.2932 26.3339 72.2592 26.1488 72.2645 25.9627C72.2603 25.7124 72.3254 25.4658 72.4527 25.2503C72.5772 25.042 72.7605 24.8752 72.9795 24.7709C73.2048 24.6595 73.5304 24.5624 73.9562 24.4796C74.5306 24.37 74.9283 24.268 75.1493 24.1737V24.0495C75.1493 23.8097 75.0911 23.639 74.9746 23.5374C74.8581 23.4359 74.6381 23.3847 74.3147 23.3838C74.0958 23.3838 73.9255 23.428 73.8026 23.515C73.6797 23.6021 73.5863 23.7551 73.5101 23.974ZM75.1538 24.9859C74.9081 25.0627 74.6585 25.1268 74.4062 25.1779C74.0657 25.2522 73.8423 25.3245 73.738 25.3956C73.6641 25.4427 73.6033 25.5077 73.5613 25.5846C73.5192 25.6614 73.4972 25.7477 73.4973 25.8353C73.4966 25.9199 73.5132 26.0037 73.5462 26.0815C73.5793 26.1594 73.628 26.2296 73.6893 26.2878C73.7537 26.3514 73.8302 26.4011 73.9144 26.4341C73.9986 26.4672 74.0886 26.4827 74.179 26.4798C74.4088 26.4772 74.6314 26.3992 74.8126 26.2577C74.9538 26.1568 75.057 26.0114 75.1058 25.8449C75.1378 25.7386 75.1538 25.536 75.1538 25.2368V24.9859Z" fill="#E8E8E8"/>
<path d="M81.6175 23.9289L80.4084 24.151C80.3658 23.9052 80.2732 23.7202 80.1307 23.5961C79.9727 23.4673 79.7729 23.4011 79.5693 23.4098C79.431 23.404 79.2931 23.4299 79.1662 23.4853C79.0394 23.5408 78.9268 23.6244 78.8371 23.7299C78.6544 23.9432 78.5633 24.3021 78.5638 24.8065C78.5638 25.3654 78.6564 25.7604 78.8416 25.9912C78.9296 26.1036 79.043 26.1936 79.1725 26.2538C79.302 26.314 79.4439 26.3426 79.5866 26.3375C79.7963 26.3458 80.0012 26.2737 80.1595 26.1359C80.308 26.0008 80.4155 25.7698 80.4737 25.4408L81.6803 25.6494C81.5548 26.2118 81.3144 26.6366 80.9589 26.9238C80.6035 27.211 80.127 27.3544 79.5296 27.3539C78.8512 27.3539 78.3099 27.1365 77.9058 26.7017C77.5017 26.2669 77.2996 25.6644 77.2996 24.8941C77.2996 24.1158 77.5021 23.5099 77.907 23.0763C78.312 22.6428 78.8597 22.426 79.5501 22.426C80.1159 22.426 80.5655 22.5496 80.8987 22.7966C81.232 23.0437 81.4716 23.4211 81.6175 23.9289Z" fill="#E8E8E8"/>
<path d="M85.2374 25.7494L86.4612 25.9581C86.3046 26.4138 86.0563 26.7607 85.7162 26.9988C85.3761 27.2369 84.9515 27.356 84.4424 27.356C83.6355 27.356 83.0381 27.0882 82.6502 26.5527C82.3443 26.126 82.1913 25.5845 82.1913 24.9282C82.1913 24.1469 82.3923 23.535 82.7942 23.0925C82.9848 22.8774 83.22 22.7066 83.4835 22.592C83.747 22.4773 84.0323 22.4216 84.3195 22.4287C85.0104 22.4287 85.5553 22.6604 85.9543 23.1238C86.3532 23.5872 86.5442 24.2967 86.5271 25.2521H83.4497C83.4586 25.622 83.5578 25.9098 83.7473 26.1155C83.836 26.215 83.9452 26.2941 84.0674 26.3474C84.1897 26.4006 84.3219 26.4268 84.4552 26.424C84.6308 26.4297 84.8027 26.373 84.9404 26.264C85.0714 26.1578 85.1704 25.9862 85.2374 25.7494ZM85.3078 24.4885C85.2988 24.1275 85.2069 23.8531 85.0319 23.6653C84.9519 23.5749 84.8532 23.5029 84.7428 23.4542C84.6323 23.4055 84.5126 23.3812 84.3919 23.3831C84.266 23.3802 84.1412 23.4054 84.0264 23.4569C83.9115 23.5084 83.8096 23.5848 83.7281 23.6807C83.5527 23.8791 83.4674 24.1484 83.4721 24.4885H85.3078Z" fill="#E8E8E8"/>
<path d="M90.586 27.25V26.5459C90.4173 26.7973 90.1879 27.0021 89.9191 27.1412C89.6507 27.2841 89.3513 27.3587 89.0473 27.3582C88.7542 27.363 88.465 27.2913 88.2081 27.1502C87.9688 27.0199 87.7796 26.8136 87.6705 26.5639C87.5595 26.3125 87.5043 25.9648 87.5047 25.5205V22.5378H88.7298V24.7025C88.7298 25.3656 88.7524 25.771 88.7977 25.9187C88.8383 26.0612 88.9252 26.1862 89.0447 26.2739C89.1785 26.3643 89.3379 26.4091 89.4992 26.4019C89.701 26.4046 89.8984 26.3432 90.0631 26.2265C90.2201 26.1216 90.3396 25.9694 90.4042 25.7919C90.4648 25.6183 90.4953 25.1943 90.4958 24.5201V22.5359H91.7241V27.25H90.586Z" fill="#E8E8E8"/>
<path d="M95.1242 22.536V23.5301H94.2844V25.4304C94.2844 25.8145 94.2926 26.0385 94.3088 26.1025C94.3248 26.1666 94.3637 26.2226 94.4182 26.26C94.4785 26.3034 94.5513 26.3258 94.6256 26.324C94.7957 26.3113 94.9627 26.2709 95.1197 26.2043L95.2247 27.1721C94.9176 27.3004 94.5872 27.3638 94.2544 27.3583C94.0491 27.3616 93.8453 27.3233 93.6553 27.2457C93.4997 27.187 93.3641 27.0854 93.2642 26.9525C93.1709 26.8053 93.1119 26.6391 93.0914 26.4661C93.0649 26.3214 93.0519 26.0285 93.0523 25.5873V23.5301H92.4884V22.536H93.0523V21.599L94.2844 20.8712V22.5354L95.1242 22.536Z" fill="#E8E8E8"/>
<path d="M95.9767 21.8961V20.744H97.205V21.8961H95.9767ZM95.9767 27.2497V22.5356H97.205V27.2497H95.9767Z" fill="#E8E8E8"/>
<path d="M102.511 23.9292L101.3 24.1513C101.257 23.9055 101.165 23.7205 101.023 23.5963C100.865 23.4674 100.665 23.4012 100.461 23.4101C100.322 23.4044 100.185 23.4302 100.058 23.4857C99.9309 23.5411 99.8183 23.6247 99.7286 23.7301C99.5468 23.9435 99.4559 24.3023 99.4559 24.8067C99.4559 25.3657 99.5483 25.7606 99.733 25.9915C99.8211 26.1039 99.9345 26.1939 100.064 26.254C100.193 26.3142 100.335 26.3429 100.478 26.3378C100.689 26.3471 100.895 26.2749 101.054 26.1361C101.203 26.0011 101.31 25.77 101.369 25.441L102.575 25.6497C102.45 26.2121 102.21 26.6369 101.854 26.9241C101.499 27.2112 101.022 27.3546 100.425 27.3542C99.7456 27.3542 99.2043 27.1368 98.8011 26.702C98.3978 26.2671 98.1949 25.6646 98.1924 24.8944C98.1924 24.1161 98.3949 23.5101 98.7998 23.0766C99.2048 22.6431 99.7527 22.4271 100.444 22.4288C101.008 22.4288 101.458 22.5524 101.792 22.7994C102.125 23.0465 102.365 23.4231 102.511 23.9292Z" fill="#E8E8E8"/>
<path d="M104.36 23.974L103.245 23.7698C103.371 23.3141 103.586 22.9767 103.892 22.7578C104.198 22.5389 104.653 22.4293 105.256 22.4288C105.804 22.4288 106.212 22.4948 106.48 22.6266C106.748 22.7585 106.936 22.9257 107.045 23.1284C107.155 23.3307 107.209 23.7028 107.209 24.2447L107.196 25.7009C107.189 26.0075 107.209 26.3143 107.255 26.6175C107.302 26.8366 107.377 27.049 107.476 27.2499H106.26C106.227 27.1673 106.188 27.0444 106.142 26.8812C106.121 26.8076 106.107 26.7589 106.098 26.7346C105.905 26.9307 105.676 27.089 105.425 27.2012C105.183 27.3053 104.923 27.358 104.66 27.3561C104.182 27.3561 103.806 27.2245 103.53 26.9612C103.395 26.8332 103.288 26.6781 103.217 26.506C103.146 26.3339 103.112 26.1488 103.117 25.9627C103.113 25.7125 103.178 25.466 103.305 25.2503C103.429 25.0421 103.613 24.8754 103.832 24.7709C104.057 24.6595 104.383 24.5624 104.808 24.4796C105.382 24.37 105.78 24.268 106.002 24.1737V24.0495C106.002 23.8097 105.944 23.639 105.827 23.5374C105.71 23.4359 105.49 23.3847 105.167 23.3838C104.948 23.3838 104.778 23.428 104.655 23.515C104.531 23.6021 104.436 23.7551 104.36 23.974ZM106.003 24.9859C105.758 25.0627 105.508 25.1268 105.256 25.1779C104.914 25.2522 104.691 25.3247 104.587 25.3956C104.513 25.4429 104.453 25.5079 104.411 25.5848C104.369 25.6616 104.347 25.7478 104.347 25.8353C104.346 25.9199 104.363 26.0037 104.396 26.0815C104.429 26.1594 104.478 26.2296 104.539 26.2878C104.603 26.3514 104.68 26.4013 104.764 26.4343C104.848 26.4673 104.938 26.4828 105.029 26.4798C105.258 26.4772 105.481 26.3992 105.662 26.2577C105.803 26.1566 105.906 26.0113 105.955 25.8449C105.987 25.7386 106.003 25.536 106.003 25.2368V24.9859Z" fill="#E8E8E8"/>
<path d="M108.42 27.2498V20.7422H109.648V27.2498H108.42Z" fill="#E8E8E8"/>
<path d="M110.473 25.905L111.706 25.7129C111.744 25.9296 111.857 26.1257 112.026 26.266C112.187 26.3914 112.412 26.4544 112.7 26.4548C113.017 26.4548 113.256 26.3955 113.416 26.2769C113.468 26.2386 113.51 26.1883 113.538 26.1303C113.567 26.0724 113.58 26.0084 113.578 25.944C113.581 25.857 113.55 25.7725 113.491 25.7085C113.429 25.6496 113.292 25.595 113.08 25.5446C112.089 25.3227 111.461 25.12 111.196 24.9365C111.021 24.8218 110.878 24.6639 110.782 24.478C110.685 24.2921 110.639 24.0846 110.646 23.8753C110.643 23.679 110.685 23.4846 110.767 23.3064C110.85 23.1282 110.971 22.9707 111.122 22.8454C111.439 22.5676 111.932 22.4285 112.599 22.4281C113.234 22.4281 113.706 22.5333 114.015 22.7437C114.324 22.954 114.536 23.2655 114.652 23.6782L113.495 23.8958C113.454 23.7259 113.354 23.5762 113.212 23.474C113.074 23.3767 112.877 23.3274 112.62 23.3274C112.297 23.3274 112.065 23.3733 111.925 23.465C111.882 23.4922 111.846 23.53 111.822 23.5748C111.798 23.6196 111.785 23.67 111.786 23.721C111.786 23.7658 111.798 23.8097 111.819 23.849C111.84 23.8884 111.871 23.922 111.908 23.947C112.019 24.0302 112.401 24.1471 113.056 24.2978C113.71 24.4484 114.166 24.6334 114.425 24.8527C114.681 25.075 114.809 25.3842 114.809 25.7802C114.809 26.2128 114.632 26.5843 114.276 26.8945C113.921 27.2047 113.395 27.3601 112.698 27.3605C112.066 27.3605 111.565 27.2303 111.197 26.9701C110.833 26.7163 110.575 26.337 110.473 25.905Z" fill="#E8E8E8"/>
<path d="M44.7778 38.8265V32.3727H46.0714V37.7301H49.2884V38.8265H44.7778Z" fill="#E8E8E8"/>
<path d="M50.201 33.4713V32.3192H51.4293V33.4713H50.201ZM50.201 38.8243V34.1114H51.4293V38.8255L50.201 38.8243Z" fill="#E8E8E8"/>
<path d="M52.5964 34.111H53.728V34.7549C54.1334 34.2552 54.6158 34.0052 55.1752 34.0047C55.4448 33.9979 55.7115 34.0621 55.9484 34.191C56.1768 34.3251 56.3631 34.5204 56.4861 34.7549C56.6656 34.5242 56.8901 34.3324 57.146 34.191C57.379 34.0675 57.6389 34.0035 57.9026 34.0047C58.2048 33.9952 58.5039 34.068 58.7679 34.2153C59.0066 34.3592 59.1921 34.5766 59.2966 34.8349C59.382 35.0359 59.4247 35.3613 59.4247 35.811V38.8251H58.1983V36.1311C58.1983 35.6617 58.1556 35.3598 58.0703 35.2254C57.957 35.0481 57.7816 34.9591 57.5461 34.9591C57.3715 34.9597 57.2016 35.0157 57.0609 35.1191C56.9027 35.2344 56.7874 35.399 56.7332 35.587C56.6662 35.7931 56.6327 36.1178 56.6327 36.5612V38.8251H55.4044V36.2418C55.4044 35.7835 55.383 35.4876 55.3404 35.354C55.3068 35.2354 55.2356 35.1309 55.1375 35.0564C55.0259 34.9862 54.8953 34.9522 54.7637 34.9591C54.581 34.9569 54.4022 35.0112 54.2516 35.1146C54.0962 35.2235 53.9815 35.3812 53.9258 35.5627C53.8605 35.7581 53.8279 36.0822 53.8279 36.5349V38.8251H52.5964V34.111Z" fill="#E8E8E8"/>
<path d="M60.6481 33.4713V32.3192H61.8764V33.4713H60.6481ZM60.6481 38.8243V34.1114H61.8764V38.8255L60.6481 38.8243Z" fill="#E8E8E8"/>
<path d="M65.2635 34.1111V35.1058H64.4244V37.0055C64.4244 37.3895 64.4323 37.6138 64.4481 37.6782C64.4644 37.7421 64.5033 37.798 64.5575 37.8357C64.618 37.879 64.6911 37.9015 64.7655 37.8997C64.9354 37.8869 65.1021 37.8465 65.259 37.78L65.364 38.7478C65.0569 38.8762 64.7265 38.9396 64.3936 38.934C64.1885 38.9372 63.9849 38.8987 63.7952 38.8207C63.6394 38.7623 63.5035 38.6606 63.4035 38.5276C63.3107 38.3804 63.2519 38.2145 63.2313 38.0418C63.2052 37.8967 63.192 37.6037 63.1916 37.163V35.1077H62.6277V34.1111H63.1916V33.1747L64.4244 32.4469V34.1111H65.2635Z" fill="#E8E8E8"/>
<path d="M68.8033 37.3261L70.0272 37.5347C69.8697 37.9904 69.6213 38.3376 69.2821 38.5761C68.9429 38.8146 68.5181 38.9337 68.0077 38.9333C67.2008 38.9333 66.6034 38.6655 66.2155 38.13C65.9096 37.7003 65.7566 37.1586 65.7566 36.5048C65.7566 35.724 65.9576 35.1123 66.3595 34.6698C66.55 34.4546 66.7852 34.2837 67.0487 34.1691C67.3122 34.0544 67.5976 33.9987 67.8848 34.006C68.5757 34.006 69.1206 34.2375 69.5196 34.7005C69.9186 35.1635 70.1095 35.8731 70.0924 36.8294H67.015C67.0239 37.1993 67.1231 37.4871 67.3126 37.6928C67.4013 37.7923 67.5105 37.8715 67.6327 37.9247C67.7549 37.978 67.8872 38.0041 68.0205 38.0013C68.196 38.0067 68.3678 37.95 68.5057 37.8413C68.6371 37.7342 68.7363 37.5624 68.8033 37.3261ZM68.8731 36.0658C68.865 35.7048 68.7733 35.4302 68.5979 35.242C68.5145 35.1518 68.4132 35.0801 68.3004 35.0316C68.1876 34.983 68.0658 34.9587 67.943 34.9602C67.8202 34.9617 67.6991 34.989 67.5876 35.0403C67.476 35.0916 67.3764 35.1658 67.2953 35.258C67.1208 35.4556 67.0355 35.7248 67.0393 36.0658H68.8731Z" fill="#E8E8E8"/>
<path d="M75.3528 38.8268H74.2122V38.1349C74.0416 38.3874 73.8111 38.5939 73.5414 38.7359C73.301 38.8634 73.0334 38.9313 72.7612 38.9337C72.2282 38.9337 71.7714 38.7155 71.3908 38.2789C71.0102 37.8424 70.8201 37.2335 70.8205 36.4522C70.8205 35.6533 71.0055 35.0459 71.3754 34.6299C71.5488 34.4288 71.7645 34.2687 72.0071 34.1609C72.2497 34.0531 72.5131 34.0003 72.7785 34.0064C73.2974 34.0064 73.7454 34.2253 74.1226 34.6632V32.3192H75.3528V38.8268ZM72.075 36.3677C72.075 36.8708 72.1435 37.2348 72.2805 37.4596C72.4781 37.7856 72.7554 37.9484 73.1126 37.948C73.3955 37.948 73.636 37.826 73.834 37.5819C74.032 37.3378 74.131 36.9732 74.131 36.488C74.131 35.9465 74.0349 35.5565 73.8429 35.3179C73.7553 35.2068 73.6436 35.1169 73.5164 35.0549C73.3891 34.9929 73.2495 34.9605 73.1079 34.9601C72.9664 34.9597 72.8265 34.9912 72.6989 35.0524C72.5712 35.1136 72.4591 35.2028 72.3708 35.3135C72.1719 35.549 72.0727 35.9004 72.0731 36.3677H72.075Z" fill="#E8E8E8"/>
</svg>
