<svg width="90" height="42" viewBox="0 0 90 42" fill="none" xmlns="http://www.w3.org/2000/svg">
<path d="M27.7958 31.2018V0H63.4997V31.2018H51.3916V2.14349L27.7958 31.2018Z" fill="#E8E8E8"/>
<path d="M44.5995 27.5664C47.7869 27.5664 50.365 25.0473 50.365 21.9377C50.365 18.8367 47.7869 16.317 44.5995 16.317C41.4121 16.317 38.8311 18.8367 38.8311 21.9377C38.8311 25.0449 41.4121 27.5664 44.5995 27.5664Z" fill="#E8E8E8"/>
<path d="M18.0155 34.8827V36.1872C17.9784 36.067 17.9254 35.9524 17.8579 35.8464C17.7434 35.7085 16.9336 35.3285 16.4768 35.5828C15.8357 35.9486 16.0213 36.7687 16.2603 37.005C16.4992 37.2413 17.6929 38.342 18.0286 38.6108C18.664 39.1146 18.9904 40.8325 17.6368 41.5664C16.9069 41.9619 16.286 41.75 15.522 41.4723C15.2658 41.429 15.1559 41.5702 15.0965 41.7265V40.1729C15.2139 40.3141 15.1578 40.3024 15.2877 40.4591C15.478 40.6884 16.2766 40.985 16.7582 40.8862C17.8196 40.6682 17.7453 39.4648 16.9878 38.8811C16.2304 38.2973 14.995 37.3943 15.031 36.1915C15.0605 35.1656 16.1228 34.5706 16.7924 34.6506C17.1973 34.6977 17.519 34.9561 17.7518 35.0423C17.8921 35.0338 17.9117 34.9703 18.0136 34.8869" fill="#E8E8E8"/>
<path d="M7.36505 34.682C7.43892 34.8327 7.54039 34.9569 7.78586 34.9645C8.16646 34.8232 8.63636 34.7084 9.50884 34.8232C10.7554 34.9828 11.8495 37.2572 10.2663 38.5895C10.8143 39.0038 11.2949 39.4708 11.4628 39.7194C11.6662 40.024 11.9505 40.9289 11.9893 41.2005C12.0431 41.6242 12.0748 41.7217 12.2231 41.7654C11.784 41.7654 11.2533 41.7937 10.8157 41.7654C10.9382 41.7075 10.926 41.6619 10.9382 41.3973C10.9586 40.9501 10.8445 40.5071 10.6109 40.1262C10.4052 39.7966 9.77816 38.9191 8.34179 38.808V41.2867C8.32543 41.5833 8.43531 41.7504 8.54659 41.7669H7.18176C7.40012 41.7198 7.37674 41.5032 7.35523 41.2575C7.38796 41.6247 7.36411 36.5101 7.36411 34.682M8.4671 37.6418C8.4671 37.7572 8.49562 37.9172 8.37078 37.9526C8.66255 37.9822 8.63589 38.0608 9.01322 38.0114C9.78283 37.9092 9.99511 37.3523 9.97454 36.7874C9.93853 35.8731 8.98283 35.6471 8.37078 35.9051C8.49562 35.9334 8.48113 36.117 8.4671 36.2177C8.47832 36.551 8.4671 37.4978 8.4671 37.6414" fill="#E8E8E8"/>
<path d="M49.3031 34.682C49.3756 34.8327 49.4756 34.9569 49.7239 34.9645C50.105 34.8232 50.5772 34.7084 51.4488 34.8232C52.6967 34.9828 53.7866 37.2572 52.2081 38.5895C52.7552 39.0038 53.2368 39.4708 53.4046 39.7194C53.6103 40.024 53.8932 40.9289 53.9283 41.2005C53.9844 41.6242 54.0171 41.7217 54.1621 41.7654C53.7226 41.7654 53.19 41.7937 52.7528 41.7654C52.8767 41.7075 52.8627 41.6619 52.8767 41.3973C52.8976 40.95 52.7835 40.5069 52.5494 40.1262C52.3437 39.7966 51.7176 38.9191 50.2803 38.808V41.2867C50.2663 41.5833 50.3738 41.7504 50.4814 41.7669H49.1189C49.3363 41.7198 49.3153 41.5032 49.2919 41.2575C49.3246 41.6247 49.3012 36.5101 49.3012 34.682M50.4042 37.6418C50.4042 37.7572 50.4323 37.9172 50.3084 37.9526C50.6006 37.9822 50.5726 38.0608 50.9485 38.0114C51.7223 37.9092 51.9351 37.3523 51.914 36.7874C51.8766 35.8731 50.9228 35.6471 50.3084 35.9051C50.4323 35.9334 50.4206 36.117 50.4042 36.2177C50.4183 36.551 50.4042 37.4978 50.4042 37.6414" fill="#E8E8E8"/>
<path d="M56.4683 34.9135L58.7126 39.3817L60.9864 34.8561C60.9864 34.8561 62.1244 40.9998 62.1852 41.2315C62.2577 41.4701 62.2577 41.7088 62.5055 41.7667H60.9864C61.2365 41.6961 61.1921 41.5667 61.1617 41.2865C61.1313 41.0064 60.5071 38.2147 60.5071 38.2147L58.6233 41.7408L56.8147 38.1313C56.8147 38.1313 56.1134 41.3209 56.0853 41.4631C56.0853 41.5619 56.0994 41.6985 56.3191 41.7667H54.6971C54.8748 41.7088 54.9473 41.5784 54.9894 41.4056C55.1226 41.1232 56.4664 34.9135 56.4664 34.9135" fill="#E8E8E8"/>
<path d="M89.0213 40.7735C89.6638 40.7735 89.7227 41.2029 89.7227 41.4289C89.7227 41.6549 89.4889 42.0263 89.0213 41.9985C88.5538 41.9708 88.3522 41.6572 88.3522 41.4025C88.3522 41.1478 88.5299 40.7731 89.0232 40.7731" fill="#E8E8E8"/>
<path d="M13.4004 41.7668C13.6393 41.7621 13.8315 41.7668 14.0442 41.7668C13.8689 41.715 13.9198 41.5149 13.9198 41.3807V35.0863C13.9174 35.0392 13.9326 34.9929 13.9625 34.9565C13.9924 34.9202 14.0347 34.8964 14.0812 34.89H12.7196C12.7658 34.8968 12.8078 34.9206 12.8374 34.957C12.8669 34.9933 12.882 35.0394 12.8795 35.0863V41.3807C12.8795 41.5149 12.9309 41.715 12.757 41.7668C12.9683 41.7668 13.1619 41.7621 13.4008 41.7668H13.4004Z" fill="#E8E8E8"/>
<path d="M21.2827 41.7668H20.493C20.7647 41.7315 20.7553 41.5032 20.7553 41.2019V35.769C20.5725 35.9056 20.1793 35.8632 19.8936 35.8783C19.7267 35.8194 19.426 35.7549 19.2535 35.842C19.1473 35.8892 19.0634 35.9761 19.0197 36.0845V34.8326H23.5415V36.0826C23.5203 36.0287 23.4888 35.9795 23.4487 35.9379C23.4085 35.8963 23.3607 35.8631 23.3078 35.8401C23.1371 35.753 22.8346 35.8175 22.6672 35.8764C22.3829 35.8613 21.9888 35.9037 21.8073 35.7672V41.2024C21.8073 41.5013 21.7985 41.7296 22.0682 41.7673L21.2827 41.7668Z" fill="#E8E8E8"/>
<path d="M33.0441 38.8555V41.3935C33.0277 41.6934 33.1376 41.7499 33.2475 41.7664H31.8826C32.1 41.7193 32.0626 41.4957 32.0542 41.3662C32.0743 41.7334 32.0626 36.5543 32.0626 34.7281C32.1375 34.8783 32.2403 35.0069 32.4867 35.0163C32.8678 34.875 33.3372 34.7588 34.2116 34.875C35.4572 35.0318 36.5494 37.3062 34.9686 38.6376C34.9686 38.6376 33.6865 39.2778 33.0441 38.8588M33.1689 37.6894C33.1689 37.8047 33.196 37.9719 33.0712 38.0039C33.362 38.0331 33.3372 38.1107 33.7122 38.0613C34.4846 37.9601 34.6974 37.4022 34.6763 36.8373C34.6403 35.9258 33.6846 35.6998 33.0712 35.9564C33.196 35.9847 33.182 36.1678 33.1689 36.269C33.1797 36.5986 33.1689 37.5515 33.1689 37.6903" fill="#E8E8E8"/>
<path d="M75.9455 38.8555V41.3935C75.9291 41.6934 76.039 41.7499 76.1489 41.7664H74.7841C75.0015 41.7193 74.9636 41.4957 74.9557 41.3662C74.9753 41.7334 74.9636 36.5543 74.9636 34.7281C75.0384 34.8783 75.1413 35.0069 75.3881 35.0163C75.7687 34.875 76.2387 34.7588 77.1125 34.875C78.3581 35.0318 79.4532 37.3062 77.87 38.6376C77.87 38.6376 76.5879 39.2778 75.9455 38.8588M76.0703 37.6894C76.0703 37.8047 76.0974 37.9719 75.9721 38.0039C76.263 38.0331 76.2387 38.1107 76.6136 38.0613C77.3861 37.9601 77.5988 37.4022 77.5778 36.8373C77.5413 35.9258 76.5856 35.6998 75.9721 35.9564C76.0974 35.9847 76.0834 36.1678 76.0703 36.269C76.0811 36.5986 76.0703 37.5515 76.0703 37.6903" fill="#E8E8E8"/>
<path d="M39.1982 38.8983H38.2939C38.156 38.8926 37.9245 38.7994 37.8942 38.7641V41.5008C37.9012 41.6443 37.8848 41.715 38.0742 41.7668H36.7706C36.9085 41.7314 36.9001 41.6137 36.9001 41.3548C36.8711 41.1265 36.8968 35.2464 36.9085 35.1051C36.9155 35.0204 36.8571 34.9168 36.6747 34.8632H38.1957C38.0975 34.898 37.9035 34.9851 37.8965 35.076C37.8895 35.1668 37.8965 37.6959 37.8965 37.8253C37.99 37.7547 38.1653 37.6761 38.2238 37.6761C38.3823 37.6761 38.7914 37.6761 39.2005 37.6761C39.6097 37.6761 40.0206 37.6761 40.1796 37.6761C40.2357 37.6761 40.4111 37.7547 40.5069 37.8253C40.5046 37.6959 40.5163 35.1678 40.5069 35.076C40.4976 34.9842 40.3059 34.898 40.2077 34.8632H41.7245C41.5374 34.9192 41.4837 35.0204 41.4907 35.1051C41.5024 35.2464 41.5281 41.1265 41.5 41.3548C41.5 41.6137 41.4907 41.7314 41.6309 41.7668H40.3222C40.5139 41.715 40.4952 41.6443 40.5046 41.5008V38.766C40.4742 38.8013 40.2404 38.8945 40.1001 38.9001L39.1982 38.8983Z" fill="#E8E8E8"/>
<path d="M79.2144 34.8467H80.8663C80.6535 34.9098 80.6722 34.9879 80.6278 35.1324V40.6679C80.6091 40.8515 80.553 40.9198 80.5016 40.974C80.5717 40.9457 80.6769 40.8798 80.7844 40.8845H82.7688C83.0395 40.8901 83.0839 40.8774 83.1143 40.7254V41.7668H79.2144C79.5365 41.6961 79.4921 41.5502 79.4921 41.3242V35.1452C79.4921 35.1452 79.5669 34.931 79.2144 34.8467Z" fill="#E8E8E8"/>
<path d="M3.31785 34.7103C3.31785 34.7103 6.15692 40.9539 6.38088 41.3988C6.45335 41.54 6.44634 41.7316 6.64459 41.7669C6.17702 41.7952 5.51308 41.7669 5.09788 41.7669C5.22178 41.6812 5.27415 41.6224 5.21477 41.4303C5.15492 41.201 4.5742 40.1479 4.5742 40.1479H2.07038C2.07038 40.1479 1.48593 41.201 1.42842 41.4303C1.3695 41.6224 1.42093 41.6812 1.54297 41.7669C1.12871 41.7669 0.467567 41.7952 0 41.7669C0.19591 41.7316 0.187027 41.541 0.262305 41.3988C0.488139 40.9539 3.3258 34.7103 3.3258 34.7103H3.31785ZM2.50662 39.1786H4.14311L3.32487 37.3293L2.50662 39.1786Z" fill="#E8E8E8"/>
<path d="M45.4401 34.7103C45.4401 34.7103 48.2791 40.9539 48.5059 41.3988C48.5761 41.54 48.5714 41.7316 48.7701 41.7669C48.3025 41.7952 47.6367 41.7669 47.2206 41.7669C47.3445 41.6812 47.3959 41.6224 47.3375 41.4303C47.279 41.201 46.695 40.1479 46.695 40.1479H44.1898C44.1898 40.1479 43.6077 41.201 43.5492 41.4303C43.4908 41.6224 43.5422 41.6812 43.6661 41.7669C43.2505 41.7669 42.5907 41.7952 42.119 41.7669C42.3153 41.7316 42.3083 41.541 42.3831 41.3988C42.6076 40.9539 45.4471 34.7103 45.4471 34.7103H45.4401ZM44.6312 39.1786H46.2649L45.4471 37.3293L44.6312 39.1786Z" fill="#E8E8E8"/>
<path d="M66.3015 34.7103C66.3015 34.7103 69.1387 40.9539 69.365 41.3988C69.4375 41.54 69.4328 41.7316 69.6292 41.7669C69.1616 41.7952 68.4958 41.7669 68.082 41.7669C68.2059 41.6812 68.2574 41.6224 68.1989 41.4303C68.1405 41.201 67.5565 40.1479 67.5565 40.1479H65.0536C65.0536 40.1479 64.4691 41.201 64.413 41.4303C64.3546 41.6224 64.4037 41.6812 64.5276 41.7669C64.1143 41.7669 63.4522 41.7952 62.9846 41.7669C63.1805 41.7316 63.1759 41.541 63.2437 41.3988C63.4728 40.9539 66.31 34.7103 66.31 34.7103H66.3015ZM65.4926 39.1786H67.1254L66.31 37.3293L65.4926 39.1786Z" fill="#E8E8E8"/>
<path d="M23.6521 38.4065C23.6521 36.399 25.319 34.8285 27.3763 34.8285C29.4336 34.8285 31.1032 36.4 31.1032 38.4065C31.1032 40.4129 29.4336 41.9995 27.3763 41.9995C25.319 41.9995 23.6521 40.4148 23.6521 38.4065ZM27.3763 41.049C28.8669 41.049 30.0774 39.8664 30.0774 38.4126C30.0774 36.9588 28.8669 35.7762 27.3763 35.7762C25.8857 35.7762 24.6761 36.956 24.6761 38.4126C24.6761 39.8692 25.8838 41.049 27.3763 41.049Z" fill="#E8E8E8"/>
<path d="M83.8467 38.4065C83.8467 36.399 85.5136 34.8285 87.5713 34.8285V35.7767C86.0784 35.7767 84.8711 36.9564 84.8711 38.4131C84.8711 39.8697 86.0784 41.0494 87.5713 41.0494V42C85.514 42 83.8467 40.4153 83.8467 38.4069" fill="#E8E8E8"/>
</svg>
