<svg width="96" height="32" viewBox="0 0 96 32" fill="none" xmlns="http://www.w3.org/2000/svg">
<path fill-rule="evenodd" clip-rule="evenodd" d="M13.799 0.0456425C12.1646 0.209189 10.3337 0.481251 9.42366 0.695781C7.25388 1.20726 5.34052 2.10907 3.8232 3.33542C2.58785 4.33384 1.29059 5.96286 0.67114 7.29348C0.249055 8.20028 0.102393 8.7801 0.06444 9.6927C0.039788 10.2848 0.051889 10.4788 0.142896 10.9537C0.536129 13.0047 1.69632 14.7234 3.59913 16.0736C5.74271 17.5947 8.61139 18.794 12.5489 19.8151C14.3961 20.2942 15.3598 20.6613 16.4869 21.315C17.532 21.9211 18.0392 22.3695 18.2951 22.9134C18.4072 23.1518 18.4244 23.2547 18.4244 23.6881C18.4244 24.155 18.4134 24.2099 18.2575 24.5203C17.9388 25.1551 17.3487 25.6658 16.3742 26.1506C14.6171 27.0247 12.2578 27.2443 10.1487 26.73C9.17344 26.4922 7.15647 25.7263 4.47325 24.5747C3.70319 24.2443 2.95578 23.9392 2.81232 23.8967C1.965 23.6459 1.05957 23.8048 0.574932 24.2893C0.470723 24.3934 0.30566 24.6467 0.208052 24.8522C0.0652401 25.1528 0.0261869 25.3018 0.00798537 25.6158C-0.0126663 25.973 -0.00146541 26.0339 0.141546 26.3394C0.354964 26.7952 0.734345 27.147 1.63687 27.7257C7.63031 31.5687 12.7635 32.7442 18.3701 31.5577C21.1709 30.965 23.7106 29.7104 25.3932 28.0883C27.2445 26.3035 28.1596 23.9616 28.0308 21.3385C27.9319 19.325 27.4256 18.1091 26.1297 16.773C25.25 15.8659 23.7563 14.8182 22.3825 14.1445C21.0719 13.5018 20.3347 13.2352 17.6701 12.4403C14.2369 11.4161 12.5583 10.8465 11.6738 10.4055C10.7878 9.96371 10.1599 9.42259 9.91635 8.89096C9.75019 8.52808 9.76199 8.02414 9.9455 7.64806C10.4609 6.59191 12.724 5.32487 14.8573 4.89816C15.7267 4.72422 16.3154 4.66933 17.3099 4.66938C18.3567 4.66949 19.2078 4.76285 20.4996 5.01942C22.3443 5.3858 23.5458 5.52521 23.9307 5.41749C24.2497 5.32817 24.5705 5.01722 24.6508 4.71932C24.735 4.40722 24.686 3.76238 24.5509 3.40565C24.3236 2.80509 24.0271 2.55298 22.8739 1.97931C20.888 0.991484 18.7933 0.399727 16.3079 0.124517C15.0419 -0.0156875 14.5624 -0.0307326 13.799 0.0456425ZM35.0741 0.273418C33.8313 0.394079 32.7228 1.2515 32.2766 2.43731C31.9914 3.19502 31.9963 2.94035 32.0116 16.3905L32.0255 28.6865L32.1391 29.0864C32.531 30.4665 33.4206 31.3372 34.6966 31.5897C35.3281 31.7147 37.5019 31.6676 38.076 31.5166C39.3503 31.1813 40.1396 30.3452 40.4035 29.0511C40.5007 28.5743 40.5021 28.3478 40.4893 15.7555L40.4762 2.9449L40.34 2.54503C40.1567 2.00715 39.8886 1.56615 39.5219 1.19967C38.9688 0.646796 38.3583 0.369837 37.476 0.271669C36.9628 0.214587 35.6703 0.215537 35.0741 0.273418ZM50.8271 0.291013C50.2744 0.427468 49.7948 0.735468 49.3947 1.21071C49.245 1.38855 48.5797 2.56237 47.5218 4.51499C44.2104 10.6272 42.0558 14.6849 41.9112 15.0816C41.8122 15.3529 41.8028 16.2169 41.8958 16.4905C42.0619 16.9789 48.8142 29.8652 49.3152 30.6499C49.6955 31.2454 50.2838 31.6442 50.9521 31.7596C51.4236 31.8409 57.3248 31.809 57.5157 31.724C57.7394 31.6245 57.7896 31.4492 57.682 31.1436C57.6041 30.9226 54.3408 24.7267 51.9388 20.2393C49.8512 16.3391 49.983 16.6351 49.9795 15.8407C49.9761 15.106 50.0681 14.8316 50.7169 13.6414C53.6514 8.25712 57.3933 1.31063 57.5907 0.88057C57.7438 0.546879 57.7138 0.39123 57.4774 0.292462C57.2441 0.195044 51.2211 0.193694 50.8271 0.291013ZM77.2292 0.293962C76.0124 0.562574 75.1394 1.4047 74.8315 2.60691C74.6496 3.31688 74.6452 3.73199 74.6809 16.7154C74.7143 28.8888 74.7198 29.452 74.8088 29.8024C74.9349 30.2986 75.1211 30.6263 75.4843 30.9913C75.8519 31.3605 76.3563 31.6224 76.9146 31.7337C77.4502 31.8404 80.4176 31.843 80.9174 31.7372C81.7974 31.5508 82.5476 30.8914 82.9097 29.9861L83.0297 29.6862L83.0557 24.2879C83.0807 19.0884 83.0852 18.8796 83.1796 18.6148C83.3147 18.2359 83.5977 17.9623 83.9807 17.8402C84.2645 17.7497 84.5452 17.7434 89.4552 17.7164C94.57 17.6884 94.6344 17.6868 94.9447 17.5814C95.7277 17.3154 95.9363 16.8889 95.9911 15.4408C96.054 13.7781 95.7934 13.163 94.9327 12.9429C94.676 12.8773 93.9754 12.8666 89.8823 12.8658C87.1328 12.8653 84.9337 12.8443 84.6643 12.8159C84.0792 12.7543 83.7604 12.6203 83.5026 12.3275C83.1275 11.9016 83.1181 11.826 83.0982 9.0679L83.0806 6.64369L83.1963 6.38718C83.3375 6.07408 83.5052 5.90728 83.8176 5.76918C84.3726 5.52386 84.4827 5.51911 89.5721 5.51866C92.2226 5.51846 94.5121 5.49747 94.7402 5.47122C95.3723 5.39855 95.6452 5.22215 95.8658 4.74371C95.9779 4.50059 95.9808 4.4559 95.9808 2.9449C95.9808 1.62118 95.9683 1.35537 95.895 1.12049C95.7757 0.738167 95.5645 0.501694 95.2172 0.36149L94.9307 0.245777L86.23 0.23678C79.1656 0.229433 77.4728 0.240229 77.2292 0.293962ZM62.328 9.18796C61.8103 9.35206 61.4744 9.60383 61.1936 10.0381C60.8767 10.5281 60.843 10.7007 60.8072 12.0173C60.7694 13.4056 60.7407 13.5073 60.3274 13.7142C60.0953 13.8303 60.0201 13.8386 58.9299 13.8689C57.9262 13.8968 57.7368 13.9151 57.4612 14.0104C56.6654 14.2859 56.1648 14.8623 56.0594 15.6244C55.9278 16.5767 56.398 17.6497 57.0776 17.9479C57.2435 18.0207 57.4991 18.0415 58.5777 18.0697C59.3246 18.0892 59.9582 18.1285 60.0667 18.162C60.1706 18.1941 60.3314 18.2869 60.424 18.3682C60.729 18.6358 60.7614 18.7947 60.8012 20.2143C60.833 21.3482 60.8488 21.5194 60.9446 21.7658C61.0707 22.0903 61.3361 22.3681 61.6536 22.5082C62.1313 22.7189 63.3066 22.759 63.9592 22.5869C64.4715 22.4518 64.7816 22.1246 64.9053 21.5888C64.937 21.4514 64.9797 20.7878 65.0002 20.1143C65.0596 18.1636 65.0843 18.138 66.9784 18.0685C68.0864 18.0278 68.2355 17.9981 68.6628 17.7325C69.1432 17.4339 69.5344 16.8207 69.6002 16.2632C69.6549 15.7996 69.5804 15.0161 69.4546 14.7312C69.3084 14.3999 69.0348 14.1358 68.7056 14.0082C68.4573 13.9119 68.2933 13.8974 67.1259 13.8687C65.8767 13.838 65.8133 13.8316 65.5759 13.714C65.0953 13.476 64.9986 13.1618 65.0074 11.867C65.0149 10.761 64.9321 10.3931 64.5511 9.83965C64.1763 9.29503 63.0406 8.96214 62.328 9.18796Z" fill="#E8E8E8"/>
</svg>
