<svg width="79" height="40" viewBox="0 0 79 40" fill="none" xmlns="http://www.w3.org/2000/svg">
<path fill-rule="evenodd" clip-rule="evenodd" d="M67.2967 16.9969C68.1627 16.9969 68.8731 16.6795 69.4238 16.1268C69.8967 15.574 70.212 14.7039 70.212 13.6762C70.212 12.6484 69.9745 11.7783 69.4238 11.2256C68.9509 10.6728 68.2425 10.3555 67.2967 10.3555C66.4286 10.3555 65.7202 10.6728 65.1695 11.2256C64.6966 11.7783 64.3813 12.6484 64.3813 13.6762C64.3813 14.7039 64.6167 15.4942 65.0897 16.1268C65.7202 16.6795 66.3508 16.9969 67.2967 16.9969ZM67.2967 18.6572C65.7202 18.6572 64.539 18.1823 63.5931 17.3122C62.6473 16.4421 62.2521 15.1789 62.2521 13.6762C62.2521 12.0957 62.7251 10.9103 63.5931 9.96033C64.539 9.01244 65.7202 8.61731 67.2967 8.61731C68.8731 8.61731 70.0544 9.09228 71.0002 9.96033C71.9461 10.9103 72.3391 12.0957 72.3391 13.6762C72.3391 15.1789 71.8662 16.4421 71.0002 17.3122C70.0544 18.1823 68.8731 18.6572 67.2967 18.6572ZM61.0708 15.099C60.9132 16.2066 60.4403 17.0747 59.6521 17.7073C58.8639 18.3399 57.7604 18.6572 56.5013 18.6572C55.0027 18.6572 53.8214 18.1823 52.9554 17.3122C52.0873 16.4421 51.6144 15.1789 51.6144 13.6762C51.6144 12.0957 52.0095 10.9103 52.9554 9.96033C53.8214 9.01244 55.0027 8.61731 56.5013 8.61731C57.7604 8.61731 58.7861 8.93259 59.5743 9.56521C60.3625 10.1978 60.8354 10.9881 60.993 12.0158H58.7861C58.7062 11.5429 58.4708 11.0679 58.0756 10.7506C57.6826 10.4353 57.1318 10.2777 56.5013 10.2777C55.7131 10.2777 55.0027 10.5929 54.6096 11.1457C54.1367 11.7005 53.8992 12.5686 53.8992 13.5963C53.8992 14.6241 54.1367 15.4164 54.6096 15.9691C55.0825 16.5219 55.7131 16.8392 56.5013 16.8392C57.1318 16.8392 57.6826 16.6795 58.0756 16.3643C58.4708 16.0469 58.7062 15.574 58.7861 15.0192L61.0708 15.099ZM41.8427 18.4197H39.7954V8.8548H43.026L44.9177 16.4421L46.8074 8.8548H49.9602V18.4197H47.9108V10.3555L45.9413 18.3399H43.8142L41.8427 10.1978V18.4197ZM35.6967 18.4197V8.8548H37.9037V18.4197H35.6967ZM25.2166 18.4197L28.6049 13.5963L25.452 8.8548H28.0541L29.866 11.938L31.7577 8.8548H34.2779L31.0473 13.4387L34.5154 18.4197H31.9153L29.866 15.1789L27.7389 18.4197H25.2166ZM16.3129 18.4197V8.8548H24.0353V10.5151H18.5179V12.5686H23.6402V14.2289H18.5179V16.6795H24.3506V18.3399H16.3129V18.4197ZM7.88013 14.2289V16.7594H10.56C11.1108 16.7594 11.5837 16.6017 11.8212 16.4421C12.1364 16.2066 12.2142 15.8893 12.2142 15.4164C12.2142 15.0192 12.0566 14.7039 11.8212 14.5463C11.5059 14.3088 11.1108 14.2289 10.4802 14.2289H7.88013ZM7.88013 10.5151V12.5686H10.4024C10.9531 12.5686 11.3482 12.4908 11.6635 12.2533C11.899 12.0957 12.0566 11.7783 12.0566 11.3832C12.0566 11.0679 11.899 10.8304 11.6635 10.6728C11.3482 10.5151 10.9531 10.4353 10.4024 10.4353H7.88013V10.5151ZM5.75299 18.4197V8.8548H10.7955C11.8212 8.8548 12.6073 9.09228 13.1601 9.48741C13.7108 9.88254 14.0261 10.5152 14.0261 11.2256C14.0261 12.0158 13.7108 12.6484 13.0803 13.0436C13.0025 13.1234 12.8448 13.2012 12.765 13.2012C13.0025 13.281 13.2379 13.3609 13.3955 13.5185C14.1059 13.9137 14.4212 14.5463 14.4212 15.3365C14.4212 16.2844 14.1059 17.0747 13.3955 17.5496C12.765 18.0246 11.7413 18.3399 10.4802 18.3399L5.75299 18.4197Z" fill="#E8E8E8"/>
<path fill-rule="evenodd" clip-rule="evenodd" d="M68.4 24.1888L66.9014 28.0623H69.8966L68.4 24.1888ZM63.12 31.6205L67.1389 22.0555H69.8966L73.9154 31.6205H71.3931L70.6049 29.6449H66.2708L65.5624 31.6205H63.12ZM52.9552 31.6205H50.7482V22.0555H54.2143L56.2636 29.6449L58.313 22.0555H61.7013V31.6205H59.4943V23.6361L57.3671 31.6205H55.0824L52.9552 23.3986V31.6205ZM41.8425 26.2443H44.6023C45.2308 26.2443 45.7037 26.1665 45.9412 25.929C46.2565 25.6915 46.4141 25.3763 46.4141 24.9811C46.4141 24.5839 46.2565 24.2687 45.9412 24.0312C45.6259 23.7937 45.2308 23.7159 44.6023 23.7159H41.7647V26.2443H41.8425ZM39.4799 31.6205V22.0555H45.153C46.2565 22.0555 47.1225 22.293 47.753 22.766C48.3836 23.2409 48.7787 23.8735 48.7787 24.6638C48.7787 25.6117 48.3836 26.2443 47.6753 26.6394C47.4378 26.7991 47.2801 26.8769 46.9648 26.9568C47.1225 27.0346 47.2023 27.0346 47.36 27.1144C47.9905 27.4317 48.3836 27.9845 48.3836 28.7748L48.4635 30.3553C48.4635 30.6726 48.5413 30.908 48.5413 30.9879C48.6211 31.1455 48.7787 31.2254 48.9364 31.3052V31.5406H46.3343C46.2565 31.4629 46.2565 31.2254 46.1766 30.908C46.0988 30.5928 46.0988 30.1976 46.0988 29.8803V29.0122C46.0988 28.6171 45.9412 28.2998 45.6259 28.0623C45.3106 27.9047 44.8377 27.8269 44.2071 27.8269H41.8425V31.6205H39.4799ZM32.5458 24.1888L31.0471 28.0623H34.0423L32.5458 24.1888ZM27.1859 31.6205L31.2048 22.0555H33.9625L37.9813 31.6205H35.4611L34.6729 29.6449H30.3388L29.6284 31.6205H27.1859ZM16.626 31.6205V22.0555H18.9906V25.6117H23.4046V22.0555H25.7672V31.6205H23.4046V27.272H18.9906V31.6205H16.626ZM8.58834 26.5616H10.5599C11.1905 26.5616 11.7412 26.4818 12.0565 26.1665C12.3717 25.929 12.5294 25.5339 12.5294 25.0589C12.5294 24.5839 12.3717 24.2687 12.0565 24.0312C11.7412 23.7937 11.2682 23.7159 10.5599 23.7159H8.58834V26.5616ZM6.22577 31.6205V22.0555H10.953C12.2141 22.0555 13.2377 22.293 13.8683 22.8458C14.4989 23.3208 14.894 24.111 14.894 25.0589C14.894 26.0867 14.5787 26.8769 13.8683 27.4317C13.2377 27.9845 12.2141 28.222 10.953 28.222C10.0071 28.222 9.21891 28.222 8.58834 28.222V31.6205H6.22577Z" fill="#E8E8E8"/>
<path fill-rule="evenodd" clip-rule="evenodd" d="M2.91534 4.2686H75.2544C76.3579 4.2686 77.2259 5.1387 77.2259 6.16644V33.8336C77.2259 34.8613 76.3579 35.7314 75.2544 35.7314H2.91534C1.81185 35.7314 0.945849 34.8613 0.945849 33.8336V6.16644C0.945849 5.1387 1.81185 4.2686 2.91534 4.2686ZM4.09868 0H73.9932C76.2801 0 78.0919 1.7402 78.0919 3.95332V36.0467C78.0919 38.182 76.2801 40 73.9932 40H4.09868C1.81185 40 0 38.2598 0 36.0467V3.95332C0 1.7402 1.81185 0 4.09868 0Z" fill="#E8E8E8"/>
</svg>
