<svg width="155" height="40" viewBox="0 0 155 40" fill="none" xmlns="http://www.w3.org/2000/svg">
<g clip-path="url(#clip0_3010_22647)">
<path d="M41.8632 28.3301C42.9725 21.9396 42.9725 21.9396 42.9725 21.9396C45.7458 21.9396 45.7458 21.9396 45.7458 21.9396C47.4098 21.9396 47.9645 22.7736 47.9645 23.8843C47.6877 25.2747 46.8551 26.1077 45.1911 26.1077C44.0818 26.1077 44.0818 26.1077 44.0818 26.1077C43.805 28.3312 43.805 28.3312 43.805 28.3312L41.8632 28.3301ZM45.19 24.7183C45.4679 24.7183 46.0226 24.4407 46.0226 23.8843C46.0226 23.329 45.4679 23.329 45.19 23.329C44.6354 23.329 44.6354 23.329 44.6354 23.329C44.3586 24.7183 44.3586 24.7183 44.3586 24.7183H45.19Z" fill="#E8E8E8"/>
<path d="M47.9629 28.3299L48.7954 21.9395H50.7362L50.4594 23.8841H52.4002L52.6781 21.9395H54.6188L53.5095 28.3299H51.5687L52.1234 25.8288H50.1815L49.9048 28.3299H47.9629Z" fill="#E8E8E8"/>
<path d="M54.0645 28.3299L57.3935 21.9395H59.3343L60.4436 28.3299H58.5017L58.225 27.2193H56.2831L56.0063 28.3299H54.0645ZM57.9471 23.6065L57.1156 26.1076H58.225L57.9471 23.6065Z" fill="#E8E8E8"/>
<path d="M63.215 26.1066C62.9371 28.3301 62.9371 28.3301 62.9371 28.3301C60.9963 28.3301 60.9963 28.3301 60.9963 28.3301C61.8278 21.9396 61.8278 21.9396 61.8278 21.9396C64.6011 21.9396 64.6011 21.9396 64.6011 21.9396C66.5429 21.9396 67.0976 22.496 67.0976 23.6066C66.8197 24.4407 66.5429 24.9971 65.7115 25.2747C66.2651 25.5524 66.8197 25.5524 66.5429 26.9429C66.2651 27.7758 66.2651 28.0535 66.5429 28.0535C66.5429 28.3312 66.5429 28.3312 66.5429 28.3312C64.6011 28.3312 64.6011 28.3312 64.6011 28.3312C64.6011 28.0535 64.6011 27.7758 64.6011 27.2205C64.879 26.3854 64.6011 26.1077 63.7696 26.1077L63.215 26.1066ZM63.4918 24.4407C64.3243 24.4407 64.3243 24.4407 64.3243 24.4407C64.879 24.4407 65.1557 24.4407 65.1557 23.8843C65.1557 23.6066 64.879 23.329 64.6011 23.329C63.7696 23.329 63.7696 23.329 63.7696 23.329L63.4918 24.4407Z" fill="#E8E8E8"/>
<path d="M67.375 28.3299L68.2064 21.9395H70.703L70.9798 25.8288L72.6437 21.9395H75.1392L74.031 28.3299H72.367L72.6437 26.3841V25.2735L72.9216 24.1607L71.2576 28.3288H69.8704L69.5937 24.1607L69.3158 24.9959V26.1065L69.039 28.3299H67.375Z" fill="#E8E8E8"/>
<path d="M74.5859 28.3299L77.636 21.9395H79.5768L80.6872 28.3299H78.7454V27.2193H76.8035L76.5267 28.3299H74.5859ZM78.4664 23.6065L77.357 26.1076H78.4664V23.6065Z" fill="#E8E8E8"/>
<path d="M85.6756 24.1617C85.6756 23.6064 85.3977 23.3288 84.843 23.3288C84.0116 23.3288 83.7337 23.8841 83.4558 24.9969C83.179 25.8299 83.179 26.9427 84.2884 26.9427C84.843 26.9427 85.3977 26.3852 85.3977 25.8299C87.3396 25.8299 87.3396 25.8299 87.3396 25.8299C86.7838 27.498 85.6756 28.331 84.0116 28.331C82.0697 28.331 81.2372 26.9427 81.515 24.998C81.7918 23.0522 83.4558 21.6628 84.843 21.6628C86.7838 21.6628 87.6163 22.498 87.6163 24.1639H85.6756V24.1617Z" fill="#E8E8E8"/>
<path d="M87.8945 28.3299L88.7271 21.9395H93.7179L93.4401 23.3288H90.39V24.1618H92.8865L92.6086 25.8299H90.1121L89.8353 26.664H92.8865L92.6086 28.331L87.8945 28.3299Z" fill="#E8E8E8"/>
<path d="M94.5502 21.9395C96.4909 21.9395 96.4909 21.9395 96.4909 21.9395C95.9363 25.5512 95.9363 25.5512 95.9363 25.5512C95.9363 26.3841 95.9363 26.9417 96.7677 26.9417C97.3235 26.9417 97.6003 26.3841 97.8782 25.5512C98.4317 21.9395 98.4317 21.9395 98.4317 21.9395C100.374 21.9395 100.374 21.9395 100.374 21.9395C99.8189 25.5512 99.8189 25.5512 99.8189 25.5512C99.2643 27.497 98.4317 28.3288 96.4909 28.3288C94.5502 28.3288 93.7176 27.4959 93.9955 25.5512L94.5502 21.9395Z" fill="#E8E8E8"/>
<path d="M101.204 21.9395H106.471L106.195 23.6065H104.531L103.698 28.3299H101.757L102.59 23.6065H100.926L101.204 21.9395Z" fill="#E8E8E8"/>
<path d="M106.197 28.3299L107.307 21.9395H109.247L108.138 28.3299H106.197Z" fill="#E8E8E8"/>
<path d="M113.682 24.1617C113.682 23.6064 113.405 23.3288 112.851 23.3288C112.296 23.3288 111.742 23.8841 111.464 24.9969C111.464 25.8299 111.464 26.9427 112.296 26.9427C113.128 26.9427 113.406 26.3852 113.406 25.8299C115.346 25.8299 115.346 25.8299 115.346 25.8299C115.069 27.498 113.682 28.331 112.018 28.331C110.078 28.331 109.245 26.9427 109.523 24.998C109.8 23.0522 111.464 21.6628 113.128 21.6628C114.792 21.6628 115.624 22.498 115.624 24.1639H113.682V24.1617Z" fill="#E8E8E8"/>
<path d="M115.346 28.3299L118.397 21.9395H120.338L121.447 28.3299H119.506V27.2193H117.564L117.288 28.3299H115.346ZM119.227 23.6065L118.118 26.1076H119.227V23.6065Z" fill="#E8E8E8"/>
<path d="M122.279 28.3301L123.111 21.9396H125.053L124.22 26.663H126.993L126.717 28.3301H122.279Z" fill="#E8E8E8"/>
<path d="M131.429 23.6063C131.429 23.3287 131.151 23.3287 131.151 23.3287C131.151 23.051 130.873 23.051 130.596 23.051C130.318 23.051 130.041 23.3287 130.041 23.6063C129.765 24.4404 133.369 23.884 132.815 26.1074C132.815 27.7755 131.429 28.3309 129.765 28.3309C128.377 28.3309 127.545 27.4979 127.545 26.1074C129.487 26.1074 129.487 26.1074 129.487 26.1074C129.487 26.3851 129.487 26.6638 129.765 26.6638C129.765 26.9426 130.041 26.9426 130.318 26.9426C130.596 26.9426 131.151 26.6638 131.151 26.3851C131.151 25.5521 127.823 26.1074 128.101 23.6074C128.377 22.218 129.487 21.6616 130.873 21.6616C132.537 21.6616 133.369 22.4968 133.093 23.6074H131.429V23.6063Z" fill="#E8E8E8"/>
<path d="M136.145 28.3299L137.254 21.9395H139.195L138.363 26.6629H141.136L140.859 28.3299H136.145Z" fill="#E8E8E8"/>
<path d="M141.69 21.9395H146.959L146.681 23.6065H145.017L144.184 28.3299H142.244L143.076 23.6065H141.412L141.69 21.9395Z" fill="#E8E8E8"/>
<path d="M146.682 28.3299C147.791 21.9395 147.791 21.9395 147.791 21.9395C150.287 21.9395 150.288 21.9395 150.288 21.9395C152.228 21.9395 153.338 22.7735 152.783 24.9959C152.506 27.2193 151.119 28.3288 149.178 28.3288L146.682 28.3299ZM148.899 26.6629C149.177 26.6629 149.177 26.6629 149.177 26.6629C150.286 26.6629 150.84 26.1065 150.84 24.9959C151.118 23.6054 150.84 23.3277 149.732 23.3277C149.454 23.3277 149.454 23.3277 149.454 23.3277L148.899 26.6629Z" fill="#E8E8E8"/>
<path d="M153.059 28.3296L153.335 26.3838H154.999L154.723 28.3296H153.059Z" fill="#E8E8E8"/>
<path d="M41.8632 39.7224C42.9725 33.3308 42.9725 33.3308 42.9725 33.3308C45.7459 33.3308 45.7459 33.3308 45.7459 33.3308C47.1331 33.3308 48.2424 33.6107 47.9645 34.9989C47.9645 35.5543 47.4098 36.1118 46.8552 36.3894C47.6877 36.3894 47.6877 37.2224 47.6877 37.7777C47.4098 39.1682 46.3005 39.7235 44.9144 39.7235H41.8632V39.7224ZM44.3598 36.9436C44.0819 38.3341 44.0819 38.3341 44.0819 38.3341C44.9144 38.3341 44.9144 38.3341 44.9144 38.3341C45.4691 38.3341 45.7459 38.0543 46.0237 37.7766C46.0237 37.2213 45.4691 36.9436 44.9144 36.9436H44.3598ZM44.6365 34.7213C44.6365 35.8319 44.6365 35.8319 44.6365 35.8319C45.1912 35.8319 45.1912 35.8319 45.1912 35.8319C45.7459 35.8319 46.0237 35.8319 46.0237 35.2766C46.0237 34.7213 45.7459 34.7213 45.4691 34.7213H44.6365Z" fill="#E8E8E8"/>
<path d="M47.9629 39.7224L51.0141 33.3308H52.9549L54.0642 39.7224H52.1234V38.8894H50.1815L49.6269 39.7224H47.9629ZM51.5687 35.2766L50.7362 37.5H51.8455L51.5687 35.2766Z" fill="#E8E8E8"/>
<path d="M59.0575 36.9438V35.2756L59.6111 33.3298H61.2751L60.4436 39.7214H58.5018L57.1157 36.1108L56.8378 37.7767L56.561 39.7225H54.6191L55.7285 33.3309H57.3936L59.0575 36.9438Z" fill="#E8E8E8"/>
<path d="M67.0976 39.7223C65.9883 39.7223 65.9883 39.7223 65.9883 39.7223C65.9883 39.167 65.9883 39.167 65.9883 39.167C65.4336 39.4447 64.879 40 64.0475 40C62.3835 40 61.2731 38.8894 61.8278 36.667C62.1056 34.4436 63.4917 33.0542 65.4336 33.0542C66.8197 33.0542 67.6523 33.8894 67.6523 35.5553C65.9883 35.5553 65.9883 35.5553 65.9883 35.5553C65.9883 35 65.4336 34.7223 65.1557 34.7223C64.3243 34.7223 63.7696 35.5553 63.4917 36.6681C63.4917 37.5011 63.4917 38.3363 64.6011 38.3363C64.8789 38.3363 65.4336 38.0564 65.7115 37.5011C64.8789 37.5011 64.8789 37.5011 64.8789 37.5011C65.1557 36.1128 65.1557 36.1128 65.1557 36.1128C67.6523 36.1128 67.6523 36.1128 67.6523 36.1128L67.0976 39.7223Z" fill="#E8E8E8"/>
<path d="M68.2069 39.7224L69.3162 33.3308H71.2581L70.4256 38.3341H73.1989L72.9221 39.7224H68.2069Z" fill="#E8E8E8"/>
<path d="M73.1973 39.7224L76.2474 33.3308H78.1892L79.2986 39.7224H77.3567V38.8894H75.4159L75.138 39.7224H73.1973ZM77.0788 35.2766L75.9695 37.5H77.3556L77.0788 35.2766Z" fill="#E8E8E8"/>
<path d="M79.8535 39.7224C80.9628 33.3308 80.9628 33.3308 80.9628 33.3308C83.4583 33.3308 83.4583 33.3308 83.4583 33.3308C85.4001 33.3308 86.5095 34.166 86.2316 36.3883C85.678 38.8894 84.2908 39.7213 82.6268 39.7213L79.8535 39.7224ZM82.0722 38.3341C82.6268 38.3341 82.6268 38.3341 82.6268 38.3341C83.4583 38.3341 84.014 37.7766 84.2908 36.3883C84.5676 35.2755 84.014 34.7202 83.1815 34.7202C82.6268 34.7202 82.6268 34.7202 82.6268 34.7202L82.0722 38.3341Z" fill="#E8E8E8"/>
<path d="M86.5078 39.7224L87.3404 33.3308H92.3312L92.0533 34.7213H89.0032V35.8319H91.4987L91.2219 37.2224H88.7254L88.4475 38.3352H91.4987L91.2219 39.7235H86.5078V39.7224Z" fill="#E8E8E8"/>
<path d="M95.9348 35.2767C95.9348 34.999 95.9348 34.7214 95.9348 34.7214C95.658 34.7214 95.658 34.7214 95.3801 34.7214C94.8255 34.7214 94.8255 34.7214 94.5487 34.999C94.5487 35.832 97.8767 35.2767 97.5988 37.7767C97.322 39.1671 96.2127 40.0001 94.5487 40.0001C92.8847 40.0001 92.0522 38.8895 92.3301 37.7767C93.994 37.7767 93.994 37.7767 93.994 37.7767C93.994 38.0543 94.2708 38.0543 94.2708 38.3342C94.5487 38.3342 94.5487 38.3342 94.8255 38.3342C95.3802 38.3342 95.658 38.3342 95.658 38.0543C95.9348 36.9437 92.3301 37.7767 92.8847 35.2767C93.1615 33.8884 94.2708 33.0532 95.658 33.0532C97.322 33.0532 97.8767 34.166 97.8767 35.2767H95.9348Z" fill="#E8E8E8"/>
<path d="M98.1543 39.7224L99.2636 33.3308H101.205L100.651 35.5543H102.592L102.869 33.3308H104.81L103.701 39.7224H101.758L102.314 37.2213H100.372L100.094 39.7224H98.1543Z" fill="#E8E8E8"/>
<path d="M36.8646 39.989H0V0H36.8646V39.989ZM2.75677 37.2345H34.1079V2.75452H2.75677V37.2345Z" fill="#E8E8E8"/>
<path d="M29.052 34.6301C28.8744 34.6301 28.6859 34.6124 28.4885 34.5772H8.09831C7.0794 34.7601 6.28876 34.4659 5.88517 33.8125C5.6128 33.3729 5.41652 32.5895 6.03073 31.3577L18.7869 6.06901C19.2478 5.29554 19.9249 4.90991 20.7673 4.90991C21.612 4.90991 22.3872 5.29885 22.761 5.48506L23.0323 5.72745L29.1325 15.1743L28.9362 16.1197L26.4397 17.7867L25.4395 17.5212L22.7312 12.0904C22.3321 11.8381 21.8998 12.0871 21.7267 12.3416C21.6815 12.4077 21.6329 12.5102 21.6693 12.6765L21.9638 13.0247L30.8373 31.3643C31.2827 32.6843 31.0115 33.4412 30.7104 33.8577C30.351 34.3557 29.7632 34.6301 29.052 34.6301ZM8.03325 33.1999L28.6881 33.2131C29.02 33.2792 29.3982 33.3233 29.5923 33.0523C29.7467 32.8396 29.7345 32.4011 29.5625 31.8821L20.7739 13.7299L20.5777 13.5338L20.4255 13.3024C20.1829 12.6953 20.2402 12.0805 20.5865 11.5703C21.2481 10.5941 22.9529 10.3506 23.7733 11.1726L23.9023 11.3522L26.325 16.2089L27.6074 15.3528L21.977 6.63424C21.6704 6.4866 21.1985 6.28717 20.7673 6.28717C20.4111 6.28717 20.1796 6.42049 19.9932 6.7323L7.26135 31.9758C6.96693 32.5653 6.96693 32.9443 7.05625 33.0886C7.14777 33.2374 7.42124 33.2528 7.53482 33.2528C7.6484 33.2528 7.7697 33.2385 7.89872 33.2131L8.03325 33.1999Z" fill="#E8E8E8"/>
<path d="M22.4529 24.1615V19.7168H4.15234V24.1615H22.4529Z" fill="#E8E8E8"/>
<path d="M6.64641 21.383L6.36963 21.1054C6.36963 21.1054 6.36963 21.1054 6.09175 21.1054C6.09175 21.1054 6.09175 21.1054 6.09175 21.383C6.09175 21.6607 7.47895 21.383 7.47895 22.4958C7.47895 23.0512 6.92429 23.6065 6.36963 23.6065C5.53708 23.6065 4.98242 23.0512 4.98242 22.4958C5.81497 22.4958 5.81497 22.4958 5.81497 22.4958L6.09175 22.7735C6.09175 22.7735 6.09175 22.7735 6.36963 22.7735C6.36963 22.7735 6.64641 22.7735 6.64641 22.4958C6.64641 22.2171 5.2603 22.4958 5.2603 21.383C5.2603 20.8277 5.53708 20.55 6.36963 20.55C6.92429 20.55 7.20107 20.8277 7.47895 21.383H6.64641Z" fill="black"/>
<path d="M9.97561 23.6065C9.69773 23.3288 9.69773 23.3288 9.69773 23.3288C9.41985 23.3288 9.41985 23.6065 9.14307 23.6065C8.31162 23.6065 7.75586 23.0512 7.75586 21.9394C7.75586 21.1054 8.31162 20.55 9.14307 20.55C9.97561 20.55 10.2524 21.1054 10.2524 21.9394C10.2524 22.2171 10.2524 22.7735 9.97561 23.0512C10.2524 23.3288 10.2524 23.3288 10.2524 23.3288L9.97561 23.6065ZM9.14307 21.9394C9.41985 22.2171 9.41985 22.2171 9.41985 22.2171C9.41985 22.2171 9.41985 22.2171 9.41985 21.9394C9.41985 21.383 9.41985 21.1054 9.14307 21.1054C8.5884 21.1054 8.5884 21.6607 8.5884 21.9394C8.5884 22.2171 8.5884 22.7735 9.14307 22.7735C8.86518 22.4958 8.86518 22.4958 8.86518 22.4958L9.14307 21.9394Z" fill="black"/>
<path d="M10.8065 20.55C11.6391 20.55 11.6391 20.55 11.6391 20.55C11.6391 22.2171 11.6391 22.2171 11.6391 22.2171C11.6391 22.4958 11.6391 22.7735 11.9158 22.7735C12.1926 22.7735 12.4705 22.4958 12.4705 22.2171C12.4705 20.55 12.4705 20.55 12.4705 20.55C13.3031 20.55 13.3031 20.55 13.3031 20.55C13.3031 22.2171 13.3031 22.2171 13.3031 22.2171C13.3031 23.0512 12.7473 23.6065 11.9158 23.6065C11.0833 23.6065 10.8065 23.0512 10.8065 22.2171V20.55Z" fill="black"/>
<path d="M14.9653 21.383L14.6874 22.4958H15.2421L14.9653 21.383ZM13.5781 23.3288L14.4096 20.55H15.2421L16.3514 23.3288H15.2421V23.0512H14.4096V23.3288H13.5781Z" fill="black"/>
<path d="M17.183 22.4958C17.183 23.3288 17.183 23.3288 17.183 23.3288C16.3516 23.3288 16.3516 23.3288 16.3516 23.3288C16.3516 20.5501 16.3516 20.55 16.3516 20.55C17.7377 20.55 17.7377 20.55 17.7377 20.55C18.5702 20.55 18.847 20.8277 18.847 21.383C18.847 21.6607 18.5702 21.9394 18.2934 21.9394C18.5702 22.2171 18.847 22.2171 18.847 22.7735C18.847 23.3288 18.847 23.3288 18.847 23.3288C18.0155 23.3288 18.0155 23.3288 18.0155 23.3288C18.0155 23.3288 18.0155 23.0512 18.0155 22.7735C18.0155 22.4958 18.0155 22.4958 17.4609 22.4958H17.183ZM17.183 21.6607C17.7377 21.6607 17.7377 21.6607 17.7377 21.6607C18.0155 21.6607 18.0155 21.6607 18.0155 21.6607C18.0155 21.383 18.0155 21.1054 17.7377 21.1054C17.183 21.1054 17.183 21.1054 17.183 21.1054V21.6607Z" fill="black"/>
<path d="M19.4021 23.3288V20.55H21.344V21.1054H20.2347V21.6607H21.0661V22.2171H20.2347V22.7735H21.344V23.3288H19.4021Z" fill="black"/>
<path d="M49.9057 4.71153C49.9057 4.43387 49.6278 4.15621 49.351 3.87746C49.351 3.87746 48.7964 3.5998 48.5185 3.5998C47.687 3.5998 47.4091 3.87746 47.4091 4.43387C46.8545 6.1009 53.7872 4.98918 52.9547 9.43497C52.4 12.4914 50.1814 13.8808 46.8545 13.8808C44.0812 13.8808 42.4183 11.9361 42.6962 9.71263C46.0241 9.71263 46.0241 9.71263 46.0241 9.71263C46.3009 9.99028 46.3009 10.5467 46.5788 10.5467C46.8556 10.8243 47.1335 10.8244 47.6881 10.8244C48.5196 10.8244 49.0742 10.5467 49.3521 9.99138C49.6289 8.32435 42.974 9.43607 43.5287 4.71153C44.0834 2.21042 46.302 0.821045 49.0742 0.821045C52.4022 0.821045 53.5104 2.48808 53.5104 4.71153H49.9057Z" fill="#E8E8E8"/>
<path d="M63.492 14.7147C62.1059 13.0477 62.1059 13.0477 62.1059 13.0477C61.5512 13.3253 60.7198 13.8806 59.3326 13.8806C55.7267 13.8806 53.7871 11.3795 54.3417 7.2125C55.1732 3.32202 57.9465 0.822021 61.2734 0.822021C65.156 0.822021 66.8189 3.60078 66.2642 7.2125C65.9874 8.87953 65.4328 10.5466 64.3234 11.6583C65.4328 13.0477 65.4328 13.0477 65.4328 13.0477L63.492 14.7147ZM61.2734 7.49016C62.1059 8.87953 62.1059 8.87953 62.1059 8.87953C62.3838 8.32422 62.3838 8.04547 62.6606 7.2125C62.9373 5.26781 62.3838 3.87843 60.9966 3.87843C59.0558 3.87843 58.5 5.82422 58.2233 7.2125C57.9454 8.87953 57.9454 10.8242 59.8872 10.8242C59.8872 10.8242 60.164 10.8242 60.4419 10.5466C59.3326 9.15719 59.3326 9.15719 59.3326 9.15719L61.2734 7.49016Z" fill="#E8E8E8"/>
<path d="M69.0375 1.09937C72.6422 1.09937 72.6422 1.09937 72.6422 1.09937C71.5329 8.60157 71.5329 8.60157 71.5329 8.60157C71.2561 9.71219 71.2561 10.8239 72.9201 10.8239C74.3062 10.8239 74.8609 9.99095 74.8609 8.60157C76.247 1.09937 76.247 1.09937 76.247 1.09937C79.8528 1.09937 79.8528 1.09937 79.8528 1.09937C78.7435 8.04516 78.7435 8.04516 78.7435 8.04516C78.1888 11.9356 76.247 13.8803 72.3665 13.8803C68.7607 13.8803 67.0978 12.2133 67.9292 8.04516L69.0375 1.09937Z" fill="#E8E8E8"/>
<path d="M79.0215 13.325L85.1206 1.09937H89.0032L90.944 13.325H87.3392L87.0613 11.9356H83.4555L82.624 13.325H79.0215ZM86.5078 4.98874L84.5659 9.15688H86.7845L86.5078 4.98874Z" fill="#E8E8E8"/>
<path d="M96.49 9.15688C95.9354 13.325 95.9354 13.325 95.9354 13.325C92.0527 13.325 92.0527 13.325 92.0527 13.325C93.9946 1.09937 93.9946 1.09937 93.9946 1.09937C99.5401 1.09937 99.5401 1.09937 99.5401 1.09937C103.145 1.09937 104.253 2.20999 103.976 4.71109C103.698 6.10047 102.867 7.21219 101.48 7.7675C102.589 8.04516 103.422 8.60157 102.867 10.8239C102.589 12.4909 102.589 13.0474 102.867 13.0474C102.867 13.325 102.867 13.325 102.867 13.325C99.2611 13.325 99.2611 13.325 99.2611 13.325C98.9844 13.325 98.9844 12.4909 99.2611 11.3792C99.539 9.71219 99.2611 9.15578 97.5972 9.15578L96.49 9.15688ZM97.0447 6.37812C98.4308 6.37812 98.4308 6.37812 98.4308 6.37812C99.5412 6.37812 100.095 6.10047 100.373 5.2675C100.373 4.43453 99.818 4.15578 98.9866 4.15578C97.3226 4.15578 97.3226 4.15578 97.3226 4.15578L97.0447 6.37812Z" fill="#E8E8E8"/>
<path d="M104.533 13.325L106.474 1.09937H115.902L115.347 4.15578H109.802L109.525 5.82281H114.238L113.683 8.60157H108.971L108.693 10.5463H114.516L113.961 13.325H104.533Z" fill="#E8E8E8"/>
</g>
<defs>
<clipPath id="clip0_3010_22647">
<rect width="155" height="40" fill="white"/>
</clipPath>
</defs>
</svg>
