<svg width="155" height="48" viewBox="0 0 155 48" fill="none" xmlns="http://www.w3.org/2000/svg">
<path d="M56.512 11.7578C49.3455 11.7578 43.3652 17.4388 43.3652 24.6019C43.3652 31.205 48.3735 36.3097 55.2929 36.3097C62.4594 36.3097 68.4397 30.6287 68.4397 23.4657C68.4397 16.879 63.4149 11.7578 56.512 11.7578ZM55.2764 31.7155C51.1248 31.7155 48.2088 28.7021 48.2088 24.6019C48.2088 20.1065 51.8991 16.3685 56.4955 16.3685C60.6472 16.3685 63.5632 19.3819 63.5632 23.4821C63.5797 27.9776 59.8893 31.7155 55.2764 31.7155Z" fill="white"/>
<path d="M63.3305 25.4238C62.6386 28.2396 60.4804 30.5121 57.6797 31.3519L59.0636 35.7649C63.4788 34.4641 66.9714 30.9402 68.0752 26.4777L63.3305 25.4238Z" fill="#FF5E32"/>
<path d="M10.6794 13.2062C10.6465 13.3873 10.8442 13.5191 10.9925 13.4203C12.607 12.3499 14.7816 11.6748 17.1705 11.6748C23.3155 11.6748 28.2744 16.6807 28.2744 22.9216C28.2744 27.6311 25.7702 32.4888 21.1573 34.8435C19.411 35.7163 17.3187 36.2267 15.2265 36.2267C11.5361 36.2267 9.09787 34.7776 7.66458 33.6744C7.54925 33.5756 7.36803 33.6414 7.33508 33.8061L4.89684 47.6546C4.86389 47.8522 4.69914 48.0004 4.48497 48.0004H0.415731C0.152136 48.0004 -0.0290853 47.7699 0.00386407 47.5229L6.16539 12.5146C6.19834 12.317 6.36308 12.1688 6.57725 12.1688H10.3829C10.6465 12.1688 10.8442 12.3993 10.7948 12.6628L10.6794 13.2062ZM8.94961 24.7823C8.35652 28.3227 11.0584 31.5831 14.6498 31.616C14.6663 31.616 14.6993 31.616 14.7157 31.616C19.3286 31.616 23.4144 28.1416 23.4144 23.1686C23.4144 19.019 20.3995 16.269 16.2973 16.269C15.2265 16.269 14.0567 16.5325 12.9694 16.9936C11.1407 17.7675 9.83924 19.4471 9.50974 21.4066L8.94961 24.7823Z" fill="white"/>
<path d="M44.3202 16.6475C44.2543 16.8451 44.0566 16.9603 43.8589 16.9274C43.513 16.878 43.1835 16.8451 42.8375 16.8451C42.0632 16.8451 41.3054 16.9768 40.5805 17.1909C37.6645 18.0965 35.5228 20.5995 34.9956 23.6129L32.8539 35.93C32.8209 36.1276 32.6562 36.2758 32.442 36.2758H28.3728C28.1092 36.2758 27.9279 36.0453 27.9609 35.7983L31.9642 13.0906C31.9972 12.893 32.1619 12.7448 32.3761 12.7448H36.1818C36.4454 12.7448 36.643 12.9918 36.5936 13.2388L36.3465 14.408C36.3136 14.6056 36.5277 14.7373 36.676 14.6056C38.3894 13.2224 40.7288 12.2344 42.9364 12.2344C43.6777 12.2344 44.3861 12.3002 45.144 12.5143C45.3746 12.5802 45.4899 12.8107 45.424 13.0248L44.3202 16.6475Z" fill="white"/>
<path d="M69.2781 29.8708C69.4098 29.6897 69.6734 29.6567 69.8711 29.7885C71.5516 31.1058 73.6438 32.1267 76.0986 32.1267C78.405 32.1267 80.2008 30.9576 80.2008 29.1133C80.2008 27.5325 78.3556 26.7092 76.2139 25.787C73.2979 24.552 69.9206 23.1853 69.9206 19.4473C69.9206 14.7873 74.4181 11.8232 78.9816 11.8232C82.3425 11.8232 84.6654 12.8606 86.5105 14.1286C86.7082 14.2603 86.7412 14.5403 86.5929 14.7214L84.4842 17.4549C84.3524 17.6195 84.1217 17.6689 83.9405 17.5537C82.6061 16.6974 80.8927 16.0717 79.1299 16.0717C77.4989 16.0717 74.7806 16.7303 74.7806 18.9863C74.7806 20.4683 76.8235 21.127 78.9816 22.0985C81.8482 23.3829 85.0773 25.0131 85.0773 28.8993C85.0773 33.3453 81.041 36.3752 76.1645 36.3752C72.8201 36.3752 69.8052 35.4366 67.2022 33.3617C67.021 33.23 66.9881 32.9665 67.1363 32.7854L69.2781 29.8708Z" fill="white"/>
<path d="M94.3539 13.9967C94.321 14.1779 94.5187 14.3096 94.6669 14.2108C96.4956 12.9593 98.7856 12.2513 101.125 12.2513C103.728 12.2513 106.545 13.4204 108.44 15.4787C110.137 17.323 111.043 19.7766 111.043 22.1807C111.043 23.2511 110.894 24.9471 110.631 26.3797L108.95 35.9634C108.918 36.161 108.753 36.3092 108.539 36.3092H104.469C104.206 36.3092 104.025 36.0787 104.057 35.8316L105.705 26.3962C105.969 25.0624 106.117 23.3334 106.117 22.2466C106.117 18.8215 103.514 16.8784 100.532 16.8784C100.202 16.8784 99.8564 16.8949 99.5269 16.9443C96.0014 17.4054 93.2007 20.1718 92.5911 23.6792L90.4494 35.9798C90.4165 36.1774 90.2517 36.3257 90.0375 36.3257H85.9683C85.7047 36.3257 85.5235 36.0951 85.5564 35.8481L91.8168 0.345803C91.8498 0.148202 92.0145 0 92.2287 0H96.2979C96.5615 0 96.7427 0.230539 96.7098 0.47754L94.3539 13.9967Z" fill="white"/>
<path d="M130.353 34.8264C128.722 36.0615 126.366 36.8683 123.746 36.8683C117.601 36.8683 112.643 31.8624 112.643 25.6215C112.643 20.9121 115.147 16.0544 119.76 13.6996C121.506 12.8269 123.598 12.3164 125.691 12.3164C129.677 12.3164 132 13.8149 133.467 15.0005C133.582 15.0993 133.763 15.0334 133.796 14.8852L134.126 13.1562C134.158 12.9586 134.34 12.8269 134.537 12.8269H138.36C138.623 12.8269 138.804 13.0574 138.771 13.3044L134.768 36.0121C134.735 36.2097 134.57 36.3578 134.356 36.3578H130.551C130.287 36.3578 130.089 36.1273 130.139 35.8638L130.353 34.8264ZM131.984 23.7443C132.577 20.2698 129.974 17.0094 126.448 16.9271C126.366 16.9271 126.3 16.9271 126.218 16.9271C121.605 16.9271 117.519 20.4016 117.519 25.3745C117.519 29.5242 120.534 32.2741 124.636 32.2741C125.707 32.2741 126.877 32.0106 127.964 31.5496C129.793 30.7756 131.094 29.096 131.424 27.1365L131.984 23.7443Z" fill="white"/>
<path d="M153.68 16.6807C153.614 16.8783 153.416 16.9935 153.218 16.9606C152.872 16.9112 152.543 16.8783 152.197 16.8783C151.423 16.8783 150.665 17.01 149.94 17.2241C147.024 18.1297 144.882 20.6327 144.355 23.6461L142.213 35.9632C142.18 36.1608 142.016 36.309 141.801 36.309H137.732C137.469 36.309 137.287 36.0785 137.32 35.8315L141.324 13.1239C141.357 12.9263 141.521 12.778 141.735 12.778H145.541C145.805 12.778 146.002 13.025 145.953 13.2721L145.706 14.4412C145.673 14.6388 145.887 14.7705 146.035 14.6388C147.749 13.2556 150.088 12.2676 152.296 12.2676C153.037 12.2676 153.746 12.3334 154.503 12.5475C154.734 12.6134 154.849 12.8439 154.783 13.058L153.68 16.6807Z" fill="white"/>
</svg>
