<svg width="178" height="48" viewBox="0 0 178 48" fill="none" xmlns="http://www.w3.org/2000/svg">
<g clip-path="url(#clip0_3221_30127)">
<path d="M10.4414 13.9953C10.3952 14.1798 10.603 14.295 10.7415 14.2028C12.3112 13.1653 14.4581 12.4736 16.8128 12.4736C22.8379 12.4736 27.7087 17.3845 27.7087 23.5174C27.7087 28.1286 25.2387 32.9011 20.7371 35.2067C19.0289 36.0598 16.9743 36.567 14.9198 36.567C11.2955 36.567 8.8947 35.1606 7.50962 34.077C7.39419 33.9847 7.20952 34.0539 7.18644 34.1922L4.78563 47.7722C4.76254 47.9566 4.57786 48.0949 4.39318 48.0949H0.399538C0.145607 48.0949 -0.0390733 47.8644 0.00709604 47.6108L6.03221 13.3036C6.05529 13.1192 6.23997 12.9809 6.42465 12.9809H10.1644C10.4183 12.9809 10.603 13.2114 10.5568 13.465L10.4414 13.9953ZM8.75619 25.3388C8.17908 28.8202 10.8338 32.0019 14.3427 32.025C14.3658 32.025 14.3889 32.025 14.4119 32.025C18.9365 32.025 22.9533 28.6127 22.9533 23.748C22.9533 19.6901 19.9984 16.9695 15.9817 16.9695C14.9198 16.9695 13.7887 17.2231 12.7268 17.6843C10.9262 18.4451 9.6565 20.0821 9.33331 22.0188L8.75619 25.3388Z" fill="#3A21C0"/>
<path d="M45.4378 12.7503C44.676 12.5428 43.9603 12.4736 43.1985 12.4736C40.9593 12.4736 38.6047 13.465 36.8503 14.8484C36.6887 14.9637 36.4809 14.8484 36.504 14.6409L36.7348 13.465C36.781 13.2114 36.5963 12.9809 36.3193 12.9809H32.4642C32.2564 12.9809 32.0948 13.1192 32.0487 13.3267L28.0319 36.0828C27.9857 36.3364 28.1935 36.567 28.4474 36.567H32.5796C32.7874 36.567 32.9489 36.4287 32.9951 36.2212L35.142 23.8632C35.6729 20.8429 37.8198 18.3298 40.7977 17.4306C41.5364 17.2001 42.2982 17.0848 43.0831 17.0848C43.4294 17.0848 43.7757 17.1079 44.1219 17.177C44.3297 17.2001 44.5375 17.0848 44.5836 16.9004L45.6917 13.3036C45.784 13.05 45.6455 12.8195 45.4378 12.7503Z" fill="#3A21C0"/>
<path d="M90.8222 30.1799C90.9607 29.9955 91.2147 29.9724 91.3993 30.1108C93.1076 31.4019 95.1852 32.4164 97.6322 32.4164C99.9176 32.4164 101.695 31.2636 101.649 29.4652C101.626 27.9205 99.7791 27.1135 97.6091 26.1913C94.6774 24.9924 91.307 23.6321 91.2377 19.9662C91.1454 15.4011 95.5777 12.4961 100.125 12.4961C103.473 12.4961 105.804 13.5106 107.651 14.7556C107.836 14.8939 107.882 15.1475 107.743 15.332L105.689 18.0064C105.55 18.1678 105.319 18.214 105.135 18.0987C103.796 17.2456 102.064 16.6461 100.333 16.6461C98.6941 16.6461 96.0163 17.2917 96.0624 19.5051C96.0855 20.9576 98.1401 21.6032 100.287 22.5715C103.149 23.8165 106.404 25.4304 106.474 29.2577C106.543 33.6153 102.595 36.5895 97.7476 36.5895C94.4234 36.5895 91.3993 35.6672 88.7908 33.6153C88.6061 33.4769 88.583 33.2233 88.6984 33.0619L90.8222 30.1799Z" fill="#3A21C0"/>
<path d="M116.4 14.1332C116.377 14.3177 116.562 14.433 116.723 14.3407C118.57 13.0727 120.902 12.3579 123.256 12.3579C125.911 12.3579 128.773 13.5338 130.689 15.6088C132.421 17.4533 133.367 19.9433 133.367 22.3642C133.367 23.4478 133.229 25.1539 132.975 26.5834L131.313 36.2208C131.29 36.4283 131.105 36.5666 130.897 36.5666H126.765C126.511 36.5666 126.303 36.336 126.35 36.0824L127.989 26.5834C128.242 25.2462 128.381 23.4939 128.381 22.4103C128.358 18.9519 125.703 16.9922 122.702 16.9922C122.356 16.9922 122.033 17.0152 121.686 17.0613C118.108 17.5225 115.292 20.3122 114.692 23.8398L112.568 36.2208C112.545 36.4283 112.36 36.5666 112.152 36.5666H108.02C107.766 36.5666 107.559 36.336 107.605 36.0824L113.791 0.345838C113.815 0.138335 113.999 0 114.207 0H118.339C118.593 0 118.801 0.230553 118.755 0.484167L116.4 14.1332Z" fill="#3A21C0"/>
<path d="M153.589 34.5611C151.927 35.76 149.55 36.567 146.895 36.567C140.662 36.567 135.606 31.6561 135.56 25.5233C135.537 20.9121 138.053 16.1395 142.717 13.8339C144.471 12.9809 146.595 12.4736 148.742 12.4736C152.805 12.4736 155.159 13.9492 156.637 15.1251C156.752 15.2173 156.937 15.1481 156.983 15.0098L157.306 13.3267C157.352 13.1423 157.514 13.0039 157.722 13.0039H161.6C161.854 13.0039 162.062 13.2345 162.015 13.4881L158.091 35.76C158.068 35.9445 157.883 36.0828 157.675 36.0828H153.82C153.566 36.0828 153.359 35.8523 153.405 35.5987L153.589 34.5611ZM155.182 23.7018C155.759 20.2896 153.105 17.1079 149.527 17.0156C149.457 17.0156 149.365 17.0156 149.296 17.0156C144.633 17.0156 140.477 20.4279 140.524 25.2927C140.547 29.3505 143.617 32.0711 147.772 32.0711C148.857 32.0711 150.034 31.8175 151.142 31.3564C152.989 30.5955 154.305 28.9586 154.628 27.0219L155.182 23.7018Z" fill="#3A21C0"/>
<path d="M176.836 16.7613C176.766 16.9688 176.582 17.0841 176.374 17.061C176.028 17.0149 175.681 16.9688 175.335 16.9688C174.55 16.9688 173.789 17.1071 173.05 17.3146C170.095 18.2369 167.925 20.773 167.394 23.8164L165.224 36.2896C165.178 36.4971 165.016 36.6354 164.809 36.6354H160.676C160.423 36.6354 160.215 36.4049 160.261 36.1513L164.324 13.1646C164.37 12.9571 164.532 12.8187 164.739 12.8187H168.595C168.848 12.8187 169.056 13.0724 169.01 13.326L168.779 14.5018C168.733 14.6863 168.964 14.8246 169.125 14.7093C170.857 13.3029 173.235 12.3115 175.451 12.3115C176.189 12.3115 176.905 12.3807 177.69 12.6112C177.921 12.6804 178.036 12.911 177.99 13.1415L176.836 16.7613Z" fill="#3A21C0"/>
<path d="M85.9052 16.0012C83.9661 13.7648 81.0112 12.4736 77.8025 12.4736H58.3421C55.318 12.4736 52.317 13.5803 49.9162 15.5862C47.4923 17.6151 45.9225 20.3587 45.5301 23.2638L45.2762 25.1313C44.8607 28.0825 45.6686 30.8953 47.5616 33.0625C49.5007 35.2989 52.4555 36.5901 55.6643 36.5901H75.1247C78.1488 36.5901 81.1498 35.4834 83.5506 33.4775C85.9745 31.4486 87.5442 28.705 87.9367 25.7999L88.1906 23.9324C88.583 20.9812 87.7751 18.1684 85.9052 16.0012ZM83.5275 23.2868L83.2736 25.1544C82.7657 28.8202 79.026 31.9097 75.1016 31.9097H55.6412C53.7713 31.9097 52.1554 31.2411 51.0704 29.9961C50.1009 28.8663 49.6854 27.3908 49.8931 25.7999L50.147 23.9324C50.6549 20.2665 54.3946 17.177 58.319 17.177H77.7794C79.6493 17.177 81.2652 17.8456 82.3502 19.0907C83.3428 20.1973 83.7583 21.696 83.5275 23.2868Z" fill="#3A21C0"/>
<path d="M83.4813 24.4165L83.6429 23.2868C83.8737 21.6729 83.4351 20.1512 82.4425 18.9984C81.3575 17.7303 79.6954 17.0387 77.7794 17.0387H68.13L68.8918 12.5889H77.7794C80.942 12.5889 83.8737 13.8569 85.7898 16.0703C87.6365 18.2145 88.4445 20.9812 88.029 23.9093L87.9597 24.4165H83.4813Z" fill="#FF5E32"/>
<path d="M77.8024 12.7042C80.942 12.7042 83.8276 13.9492 85.7205 16.1395C87.5442 18.2607 88.3521 21.0043 87.9366 23.8863L87.8674 24.3013H83.5967L83.7352 23.3099C83.9661 21.6499 83.5275 20.1051 82.5117 18.9293C81.4037 17.6381 79.7185 16.9465 77.7794 16.9465H68.2685L68.9841 12.7272H77.8024M77.8024 12.4736H68.8225L68.0146 17.154H77.8024C79.6723 17.154 81.2882 17.8226 82.3732 19.0676C83.3428 20.1974 83.7583 21.6729 83.5505 23.2638L83.3659 24.5318H88.0982L88.1906 23.9093C88.6061 20.9582 87.7981 18.1454 85.9052 15.9781C83.943 13.7648 80.9881 12.4736 77.8024 12.4736Z" fill="#FF5E32"/>
</g>
<defs>
<clipPath id="clip0_3221_30127">
<rect width="178" height="48" fill="white"/>
</clipPath>
</defs>
</svg>
