<svg width="178" height="48" viewBox="0 0 178 48" fill="none" xmlns="http://www.w3.org/2000/svg">
<g clip-path="url(#clip0_3221_30107)">
<path d="M10.4414 13.9949C10.3952 14.1793 10.603 14.2946 10.7415 14.2024C12.3112 13.1649 14.4581 12.4732 16.8128 12.4732C22.8379 12.4732 27.7087 17.3841 27.7087 23.517C27.7087 28.1281 25.2387 32.9007 20.7371 35.2063C19.0289 36.0594 16.9743 36.5666 14.9198 36.5666C11.2955 36.5666 8.8947 35.1602 7.50962 34.0765C7.39419 33.9843 7.20952 34.0535 7.18644 34.1918L4.78563 47.7717C4.76254 47.9562 4.57786 48.0945 4.39318 48.0945H0.399538C0.145607 48.0945 -0.0390733 47.8639 0.00709604 47.6103L6.03221 13.3032C6.05529 13.1188 6.23997 12.9804 6.42465 12.9804H10.1644C10.4183 12.9804 10.603 13.211 10.5568 13.4646L10.4414 13.9949ZM8.75619 25.3384C8.17908 28.8198 10.8338 32.0015 14.3427 32.0246C14.3658 32.0246 14.3889 32.0246 14.4119 32.0246C18.9365 32.0246 22.9533 28.6123 22.9533 23.7475C22.9533 19.6897 19.9984 16.9691 15.9817 16.9691C14.9198 16.9691 13.7887 17.2227 12.7268 17.6838C10.9262 18.4447 9.6565 20.0816 9.33331 22.0183L8.75619 25.3384Z" fill="white"/>
<path d="M45.4378 12.7499C44.676 12.5424 43.9603 12.4732 43.1985 12.4732C40.9593 12.4732 38.6047 13.4646 36.8503 14.848C36.6887 14.9632 36.4809 14.848 36.504 14.6405L36.7348 13.4646C36.781 13.211 36.5963 12.9804 36.3193 12.9804H32.4642C32.2564 12.9804 32.0948 13.1188 32.0487 13.3263L28.0319 36.0824C27.9857 36.336 28.1935 36.5666 28.4474 36.5666H32.5796C32.7874 36.5666 32.9489 36.4282 32.9951 36.2207L35.142 23.8628C35.6729 20.8425 37.8198 18.3294 40.7977 17.4302C41.5364 17.1997 42.2982 17.0844 43.0831 17.0844C43.4294 17.0844 43.7757 17.1074 44.1219 17.1766C44.3297 17.1997 44.5375 17.0844 44.5836 16.8999L45.6917 13.3032C45.784 13.0496 45.6455 12.819 45.4378 12.7499Z" fill="white"/>
<path d="M90.8222 30.1801C90.9607 29.9957 91.2147 29.9726 91.3993 30.1109C93.1076 31.4021 95.1852 32.4165 97.6322 32.4165C99.9176 32.4165 101.695 31.2637 101.649 29.4654C101.626 27.9206 99.7791 27.1137 97.6091 26.1915C94.6774 24.9925 91.307 23.6323 91.2377 19.9664C91.1454 15.4013 95.5777 12.4963 100.125 12.4963C103.473 12.4963 105.804 13.5107 107.651 14.7558C107.836 14.8941 107.882 15.1477 107.743 15.3322L105.689 18.0066C105.55 18.168 105.319 18.2141 105.135 18.0989C103.796 17.2458 102.064 16.6463 100.333 16.6463C98.6941 16.6463 96.0163 17.2919 96.0624 19.5053C96.0855 20.9578 98.1401 21.6033 100.287 22.5717C103.149 23.8167 106.404 25.4306 106.474 29.2579C106.543 33.6154 102.595 36.5897 97.7476 36.5897C94.4234 36.5897 91.3993 35.6674 88.7908 33.6154C88.6061 33.4771 88.583 33.2235 88.6984 33.0621L90.8222 30.1801Z" fill="white"/>
<path d="M116.4 14.1332C116.377 14.3177 116.562 14.433 116.723 14.3407C118.57 13.0727 120.902 12.3579 123.256 12.3579C125.911 12.3579 128.773 13.5338 130.689 15.6088C132.421 17.4533 133.367 19.9433 133.367 22.3642C133.367 23.4478 133.229 25.1539 132.975 26.5834L131.313 36.2208C131.29 36.4283 131.105 36.5666 130.897 36.5666H126.765C126.511 36.5666 126.303 36.336 126.35 36.0824L127.989 26.5834C128.242 25.2462 128.381 23.4939 128.381 22.4103C128.358 18.9519 125.703 16.9922 122.702 16.9922C122.356 16.9922 122.033 17.0152 121.686 17.0613C118.108 17.5225 115.292 20.3122 114.692 23.8398L112.568 36.2208C112.545 36.4283 112.36 36.5666 112.152 36.5666H108.02C107.766 36.5666 107.559 36.336 107.605 36.0824L113.791 0.345838C113.815 0.138335 113.999 0 114.207 0H118.339C118.593 0 118.801 0.230553 118.755 0.484167L116.4 14.1332Z" fill="white"/>
<path d="M153.589 34.5607C151.927 35.7596 149.55 36.5666 146.895 36.5666C140.662 36.5666 135.606 31.6557 135.56 25.5228C135.537 20.9117 138.053 16.1391 142.717 13.8335C144.471 12.9804 146.595 12.4732 148.742 12.4732C152.805 12.4732 155.159 13.9488 156.637 15.1246C156.752 15.2169 156.937 15.1477 156.983 15.0093L157.306 13.3263C157.352 13.1418 157.514 13.0035 157.722 13.0035H161.6C161.854 13.0035 162.062 13.2341 162.015 13.4877L158.091 35.7596C158.068 35.9441 157.883 36.0824 157.675 36.0824H153.82C153.566 36.0824 153.359 35.8518 153.405 35.5982L153.589 34.5607ZM155.182 23.7014C155.759 20.2891 153.105 17.1074 149.527 17.0152C149.457 17.0152 149.365 17.0152 149.296 17.0152C144.633 17.0152 140.477 20.4275 140.524 25.2923C140.547 29.3501 143.617 32.0707 147.772 32.0707C148.857 32.0707 150.034 31.8171 151.142 31.356C152.989 30.5951 154.305 28.9581 154.628 27.0215L155.182 23.7014Z" fill="white"/>
<path d="M176.836 16.7616C176.766 16.9691 176.582 17.0844 176.374 17.0613C176.028 17.0152 175.681 16.9691 175.335 16.9691C174.55 16.9691 173.789 17.1074 173.05 17.3149C170.095 18.2372 167.925 20.7733 167.394 23.8167L165.224 36.2899C165.178 36.4974 165.016 36.6358 164.809 36.6358H160.676C160.423 36.6358 160.215 36.4052 160.261 36.1516L164.324 13.1649C164.37 12.9574 164.532 12.8191 164.739 12.8191H168.595C168.848 12.8191 169.056 13.0727 169.01 13.3263L168.779 14.5021C168.733 14.6866 168.964 14.8249 169.125 14.7096C170.857 13.3032 173.235 12.3118 175.451 12.3118C176.189 12.3118 176.905 12.381 177.69 12.6116C177.921 12.6807 178.036 12.9113 177.99 13.1418L176.836 16.7616Z" fill="white"/>
<path d="M85.9052 16.0008C83.9661 13.7643 81.0112 12.4732 77.8025 12.4732H58.3421C55.318 12.4732 52.317 13.5799 49.9162 15.5857C47.4923 17.6147 45.9225 20.3583 45.5301 23.2633L45.2762 25.1309C44.8607 28.082 45.6686 30.8948 47.5616 33.0621C49.5007 35.2985 52.4555 36.5896 55.6643 36.5896H75.1247C78.1488 36.5896 81.1498 35.483 83.5506 33.4771C85.9745 31.4482 87.5442 28.7045 87.9367 25.7995L88.1906 23.932C88.583 20.9808 87.7751 18.168 85.9052 16.0008ZM83.5275 23.2864L83.2736 25.1539C82.7657 28.8198 79.026 31.9093 75.1016 31.9093H55.6412C53.7713 31.9093 52.1554 31.2407 51.0704 29.9957C50.1009 28.8659 49.6854 27.3903 49.8931 25.7995L50.147 23.932C50.6549 20.2661 54.3946 17.1766 58.319 17.1766H77.7794C79.6493 17.1766 81.2652 17.8452 82.3502 19.0902C83.3428 20.1969 83.7583 21.6956 83.5275 23.2864Z" fill="white"/>
<path d="M83.4813 24.4162L83.6429 23.2864C83.8737 21.6725 83.4351 20.1508 82.4425 18.998C81.3575 17.73 79.6954 17.0383 77.7794 17.0383H68.13L68.8918 12.5885H77.7794C80.942 12.5885 83.8737 13.8566 85.7898 16.0699C87.6365 18.2141 88.4445 20.9808 88.029 23.9089L87.9597 24.4162H83.4813Z" fill="#FF5E32"/>
<path d="M77.8024 12.7038C80.942 12.7038 83.8276 13.9488 85.7205 16.1391C87.5442 18.2602 88.3521 21.0039 87.9366 23.8859L87.8674 24.3009H83.5967L83.7352 23.3095C83.9661 21.6494 83.5275 20.1047 82.5117 18.9288C81.4037 17.6377 79.7185 16.946 77.7794 16.946H68.2685L68.9841 12.7268H77.8024M77.8024 12.4732H68.8225L68.0146 17.1535H77.8024C79.6723 17.1535 81.2882 17.8222 82.3732 19.0672C83.3428 20.1969 83.7583 21.6725 83.5505 23.2633L83.3659 24.5314H88.0982L88.1906 23.9089C88.6061 20.9578 87.7981 18.1449 85.9052 15.9777C83.943 13.7643 80.9881 12.4732 77.8024 12.4732Z" fill="#FF5E32"/>
</g>
<defs>
<clipPath id="clip0_3221_30107">
<rect width="178" height="48" fill="white"/>
</clipPath>
</defs>
</svg>
