<svg width="68" height="68" viewBox="0 0 68 68" fill="none" xmlns="http://www.w3.org/2000/svg">
<rect width="68" height="68" rx="8" fill="url(#paint0_linear_205_90)"/>
<path d="M33.9973 19C29.4856 19 26.5603 22.0285 23.1006 23.1324C21.6938 23.5812 20.9905 23.8056 20.7058 24.122C20.4211 24.4383 20.3378 24.9006 20.1711 25.8252C18.3872 35.719 22.2863 44.866 31.5854 48.4262C32.5846 48.8087 33.0841 49 34.0022 49C34.9203 49 35.4198 48.8087 36.4189 48.4262C45.7174 44.8659 49.6129 35.719 47.8285 25.8252C47.6617 24.9005 47.5783 24.4381 47.2936 24.1217C47.0089 23.8054 46.3055 23.5811 44.8989 23.1325C41.4378 22.0287 38.5091 19 33.9973 19Z" stroke="white" stroke-width="2.5" stroke-linecap="round" stroke-linejoin="round"/>
<path d="M29.5 35.5C29.5 35.5 31 35.5 32.5 38.5C32.5 38.5 37.2647 31 41.5 29.5" stroke="white" stroke-width="2.5" stroke-linecap="round" stroke-linejoin="round"/>
<defs>
<linearGradient id="paint0_linear_205_90" x1="0" y1="0" x2="68" y2="68" gradientUnits="userSpaceOnUse">
<stop stop-color="#2B7FFF"/>
<stop offset="1" stop-color="#155DFC"/>
</linearGradient>
</defs>
</svg>
