<svg width="68" height="68" viewBox="0 0 68 68" fill="none" xmlns="http://www.w3.org/2000/svg">
<rect width="68" height="68" rx="8" fill="url(#paint0_linear_200_53)"/>
<path d="M26.5 43L26.5 40" stroke="white" stroke-width="2.5" stroke-linecap="round"/>
<path d="M34 43L34 38.5" stroke="white" stroke-width="2.5" stroke-linecap="round"/>
<path d="M41.5 43L41.5 35.5" stroke="white" stroke-width="2.5" stroke-linecap="round"/>
<path d="M25 32C24.3096 32 23.75 32.5596 23.75 33.25C23.75 33.9404 24.3096 34.5 25 34.5V33.25V32ZM41.0853 26.3702C41.4278 25.7708 41.2196 25.0072 40.6202 24.6647C40.0208 24.3222 39.2572 24.5304 38.9147 25.1298L40 25.75L41.0853 26.3702ZM36.7966 24.2088C36.1154 24.3212 35.6543 24.9645 35.7667 25.6456C35.879 26.3268 36.5223 26.7879 37.2034 26.6755L37 25.4422L36.7966 24.2088ZM38.9015 25.1285L38.698 23.8952V23.8952L38.9015 25.1285ZM41.0228 26.3343L39.8211 26.6786L41.0228 26.3343ZM40.2983 28.3443C40.4885 29.0079 41.1806 29.3918 41.8443 29.2017C42.5079 29.0115 42.8918 28.3194 42.7017 27.6557L41.5 28L40.2983 28.3443ZM40.4112 25.1073L41.0289 24.0206V24.0206L40.4112 25.1073ZM25 33.25V34.5C32.0403 34.5 37.794 32.1299 41.0853 26.3702L40 25.75L38.9147 25.1298C36.206 29.8701 31.4597 32 25 32V33.25ZM37 25.4422L37.2034 26.6755L39.1049 26.3619L38.9015 25.1285L38.698 23.8952L36.7966 24.2088L37 25.4422ZM41.0228 26.3343L39.8211 26.6786L40.2983 28.3443L41.5 28L42.7017 27.6557L42.2244 25.99L41.0228 26.3343ZM38.9015 25.1285L39.1049 26.3619C39.3088 26.3282 39.4686 26.3019 39.6066 26.2823C39.7449 26.2627 39.8348 26.2538 39.8966 26.2509C40.0149 26.2455 39.9247 26.2686 39.7935 26.194L40.4112 25.1073L41.0289 24.0206C40.5871 23.7695 40.1416 23.7372 39.7826 23.7535C39.4529 23.7686 39.0676 23.8342 38.698 23.8952L38.9015 25.1285ZM41.0228 26.3343L42.2244 25.99C42.1344 25.6757 42.0327 25.3095 41.8976 25.0101C41.7405 24.6621 41.4877 24.2814 41.0289 24.0206L40.4112 25.1073L39.7935 26.194C39.7344 26.1604 39.6814 26.1145 39.6428 26.0674C39.6098 26.0271 39.6045 26.0068 39.619 26.0387C39.6344 26.0729 39.6584 26.1352 39.6946 26.2495C39.7308 26.3636 39.7696 26.4986 39.8211 26.6786L41.0228 26.3343Z" fill="white"/>
<path d="M19.75 34C19.75 27.2825 19.75 23.9237 21.8369 21.8369C23.9237 19.75 27.2825 19.75 34 19.75C40.7175 19.75 44.0763 19.75 46.1631 21.8369C48.25 23.9237 48.25 27.2825 48.25 34C48.25 40.7175 48.25 44.0763 46.1631 46.1631C44.0763 48.25 40.7175 48.25 34 48.25C27.2825 48.25 23.9237 48.25 21.8369 46.1631C19.75 44.0763 19.75 40.7175 19.75 34Z" stroke="white" stroke-width="2.5"/>
<defs>
<linearGradient id="paint0_linear_200_53" x1="0" y1="0" x2="68" y2="68" gradientUnits="userSpaceOnUse">
<stop stop-color="#00C950"/>
<stop offset="1" stop-color="#00A63E"/>
</linearGradient>
</defs>
</svg>
