<svg width="68" height="68" viewBox="0 0 68 68" fill="none" xmlns="http://www.w3.org/2000/svg">
<rect width="68" height="68" rx="8" fill="url(#paint0_linear_200_45)"/>
<path d="M43.9241 46H44.6594C46.3842 46 47.7561 45.2141 48.9878 44.1153C52.1171 41.3239 44.7612 38.5 42.25 38.5M39.25 23.6032C39.5906 23.5356 39.9443 23.5 40.3071 23.5C43.037 23.5 45.25 25.5147 45.25 28C45.25 30.4853 43.037 32.5 40.3071 32.5C39.9443 32.5 39.5906 32.4644 39.25 32.3968" stroke="white" stroke-width="2.5" stroke-linecap="round"/>
<path d="M22.722 40.1668C20.9535 41.1145 16.3167 43.0496 19.1408 45.4711C20.5204 46.654 22.0569 47.5 23.9886 47.5H35.0114C36.9431 47.5 38.4796 46.654 39.8592 45.4711C42.6833 43.0496 38.0465 41.1145 36.278 40.1668C32.131 37.9444 26.869 37.9444 22.722 40.1668Z" stroke="white" stroke-width="2.5"/>
<path d="M35.5 27.25C35.5 30.5637 32.8137 33.25 29.5 33.25C26.1863 33.25 23.5 30.5637 23.5 27.25C23.5 23.9363 26.1863 21.25 29.5 21.25C32.8137 21.25 35.5 23.9363 35.5 27.25Z" stroke="white" stroke-width="2.5"/>
<defs>
<linearGradient id="paint0_linear_200_45" x1="34" y1="0" x2="34" y2="68" gradientUnits="userSpaceOnUse">
<stop stop-color="#008A8A"/>
<stop offset="1" stop-color="#00B5B5"/>
</linearGradient>
</defs>
</svg>
